<?xml version="1.0" encoding="UTF-8" standalone="no"?>
<!-- Created with Inkscape (http://www.inkscape.org/) -->

<svg
   width="210mm"
   height="297mm"
   viewBox="0 0 210 297"
   version="1.1"
   id="svg5"
   xml:space="preserve"
   inkscape:version="1.2.1 (9c6d41e, 2022-07-14)"
   sodipodi:docname="icon.svg"
   xmlns:inkscape="http://www.inkscape.org/namespaces/inkscape"
   xmlns:sodipodi="http://sodipodi.sourceforge.net/DTD/sodipodi-0.dtd"
   xmlns="http://www.w3.org/2000/svg"
   xmlns:svg="http://www.w3.org/2000/svg"><sodipodi:namedview
     id="namedview7"
     pagecolor="#ffffff"
     bordercolor="#000000"
     borderopacity="0.25"
     inkscape:showpageshadow="2"
     inkscape:pageopacity="0.0"
     inkscape:pagecheckerboard="0"
     inkscape:deskcolor="#d1d1d1"
     inkscape:document-units="mm"
     showgrid="false"
     inkscape:zoom="0.914906"
     inkscape:cx="168.3233"
     inkscape:cy="298.93781"
     inkscape:window-width="2947"
     inkscape:window-height="1639"
     inkscape:window-x="61"
     inkscape:window-y="25"
     inkscape:window-maximized="1"
     inkscape:current-layer="layer1" /><defs
     id="defs2"><filter
       style="color-interpolation-filters:sRGB;"
       inkscape:label="Drop Shadow"
       id="filter1190"
       x="-1.0628713"
       y="-0.4176245"
       width="3.2892612"
       height="1.8994989"><feFlood
         flood-opacity="1"
         flood-color="rgb(84,140,54)"
         result="flood"
         id="feFlood1180" /><feComposite
         in="SourceGraphic"
         in2="flood"
         operator="in"
         result="composite1"
         id="feComposite1182" /><feGaussianBlur
         in="composite1"
         stdDeviation="16.25"
         result="blur"
         id="feGaussianBlur1184" /><feOffset
         dx="6"
         dy="6"
         result="offset"
         id="feOffset1186" /><feComposite
         in="SourceGraphic"
         in2="offset"
         operator="over"
         result="composite2"
         id="feComposite1188" /></filter><filter
       style="color-interpolation-filters:sRGB;"
       inkscape:label="Drop Shadow"
       id="filter1356"
       x="-0.18395515"
       y="-0.18034682"
       width="1.3962111"
       height="1.3884393"><feFlood
         flood-opacity="1"
         flood-color="rgb(84,140,54)"
         result="flood"
         id="feFlood1346" /><feComposite
         in="SourceGraphic"
         in2="flood"
         operator="in"
         result="composite1"
         id="feComposite1348" /><feGaussianBlur
         in="composite1"
         stdDeviation="16.25"
         result="blur"
         id="feGaussianBlur1350" /><feOffset
         dx="6"
         dy="6"
         result="offset"
         id="feOffset1352" /><feComposite
         in="SourceGraphic"
         in2="offset"
         operator="over"
         result="composite2"
         id="feComposite1354" /></filter></defs><g
     inkscape:label="Layer 1"
     inkscape:groupmode="layer"
     id="layer1"><rect
       style="fill:#f4e3d7;stroke-width:0.232174"
       id="rect370"
       width="200"
       height="200"
       x="-250.44011"
       y="-69.116844"
       ry="18.508276" /><g
       id="g1344"
       transform="matrix(0.84902379,0,0,0.83236995,-358.3012,23.110073)"
       style="filter:url(#filter1356)"><path
         style="fill:#fde3ba;stroke-width:0.264583"
         d="m 234.07294,116.96502 c -4.47808,-0.49797 -9.71259,-1.40199 -10.75389,-1.85724 -0.56122,-0.24536 -0.54426,-0.25599 0.17056,-0.10687 5.84503,1.21933 11.09734,1.90354 16.93333,2.20589 l 3.96875,0.20561 -3.04271,0.0117 c -1.67349,0.006 -4.94771,-0.20015 -7.27604,-0.45907 z m 17.85938,0.0961 c 3.95949,-0.29541 10.56063,-1.21182 15.03412,-2.08711 0.60852,-0.11906 0.63052,-0.10384 0.15579,0.10776 -1.75644,0.78295 -15.06162,2.47059 -18.74853,2.37807 -0.7349,-0.0184 0.86648,-0.19786 3.55862,-0.39872 z m -16.2075,-1.44253 c -16.46751,-1.35993 -32.20201,-8.65856 -43.85305,-20.341745 -10.93879,-10.96896 -17.47284,-24.36514 -19.74908,-40.48978 -0.65862,-4.66559 -0.6619,-15.78535 -0.006,-20.24063 1.61927,-10.99853 5.12831,-20.38928 10.87537,-29.104163 5.42163,-8.221419 10.63335,-13.582756 18.95248,-19.496585 13.17547,-9.366063 21.17677,-21.695945 24.5205,-37.785708 0.3482,-1.675495 0.42873,-5.330582 0.51734,-23.481771 0.0941,-19.279338 0.0627,-21.497397 -0.30485,-21.497397 -0.2254,0 -0.40982,-0.120186 -0.40982,-0.26708 0,-0.146894 0.50602,-0.25935 1.12448,-0.2499 0.61846,0.0095 2.43417,-0.168851 4.03489,-0.396223 4.54706,-0.645875 7.40419,-0.8224 16.53646,-1.021685 2.11006,-0.04605 2.2965,-0.04264 0.41433,0.0076 -2.16239,0.05768 -3.56424,0.209216 -3.80817,0.411655 -0.33681,0.279529 -0.37277,8.028674 -0.28203,60.780003 l 0.104,60.459634 -2.77813,0.20146 c -19.01026,1.37861 -34.60547,13.51954 -40.45275,31.49263 -1.78496,5.48656 -2.24245,8.59922 -2.24423,15.26945 -0.001,5.1508 0.0649,6.00264 0.7015,9.01128 2.76023,13.04604 10.10607,23.559915 21.10097,30.201135 5.6788,3.43016 10.85355,5.3288 17.19035,6.30725 3.30488,0.5103 2.38195,0.60773 -2.18458,0.23061 z m 8.92167,-0.0403 c -0.0703,-0.18362 -0.0969,-6.33663 -0.0591,-13.67331 l 0.0688,-13.339455 0.66145,-0.18609 c 0.36381,-0.10235 1.43537,-0.33024 2.38125,-0.50641 2.41039,-0.44895 5.65408,-2.05777 7.55649,-3.7479 2.03987,-1.81228 3.57304,-3.55135 4.17151,-4.73175 0.25822,-0.50932 0.65802,-1.27314 0.88843,-1.69736 1.23968,-2.28245 1.50797,-3.62024 1.51675,-7.56306 0.008,-3.53324 -0.05,-4.00355 -0.7318,-5.95058 -2.22313,-6.34838 -7.40671,-10.90937 -13.67799,-12.03514 -0.93927,-0.16861 -1.97565,-0.36026 -2.30307,-0.42588 l -0.59532,-0.11931 v -14.18433 -14.18434 l 2.18282,0.18044 c 16.08425,1.32953 29.45812,9.70283 37.21546,23.3004 2.4806,4.34815 4.68336,10.76546 5.43665,15.83857 0.52794,3.55553 0.52683,10.15551 -0.002,13.94963 -2.77823,19.91922 -18.70303,35.827645 -38.74713,38.707325 -4.66073,0.6696 -5.82016,0.74126 -5.96291,0.36856 z m -25.27259,-1.39117 c -11.40033,-3.13087 -22.09792,-7.9899 -31.78835,-14.438825 -7.23675,-4.81602 -11.41866,-8.24296 -17.55367,-14.38468 -8.93999,-8.94976 -14.96289,-17.43244 -20.60373,-29.0184 -3.88107,-7.97146 -6.61929,-15.97562 -8.36248,-24.44455 -0.8103,-3.93663 -1.59828,-9.20214 -1.55546,-10.39399 0.0142,-0.39518 0.30003,1.18649 0.63519,3.51482 4.45248,30.93163 21.34266,57.23822 48.04352,74.82821 9.63286,6.345945 20.34581,11.143725 31.72881,14.209715 1.52797,0.41156 2.54,0.74852 2.24896,0.74881 -0.29104,2.7e-4 -1.5478,-0.27921 -2.79279,-0.62111 z m 51.873,-0.36439 c 20.90456,-5.82148 40.03855,-18.189025 54.08472,-34.958525 13.0539,-15.58484 21.04678,-33.08208 24.11234,-52.78437 0.34491,-2.21672 0.3611,-2.25563 0.23438,-0.56303 -0.27264,3.64157 -2.26022,12.33846 -4.0893,17.89324 -3.12685,9.49597 -8.22968,19.57778 -14.23042,28.11548 -13.35208,18.99698 -32.558,33.362285 -54.68776,40.904415 -2.93484,1.00022 -8.01475,2.42291 -8.5787,2.40254 -0.22943,-0.008 1.19021,-0.46267 3.15474,-1.00975 z m 78.633,-91.314775 c -0.0144,-0.65484 0.0982,-2.38125 0.24995,-3.83646 0.1518,-1.4552 0.36061,-5.80099 0.46402,-9.65729 l 0.18801,-7.011456 0.0408,6.614586 c 0.0374,6.0659 -0.12636,9.20868 -0.70306,13.49375 -0.20374,1.51392 -0.21485,1.53231 -0.23969,0.39687 z m -210.74633,-3.23428 c -0.0884,-0.76776 -0.20843,-3.89624 -0.26675,-6.95218 -0.0583,-3.05593 -0.0634,-4.663277 -0.0113,-3.57187 0.0521,1.09141 0.21003,4.18201 0.35092,6.868 0.25644,4.88865 0.22877,6.2762 -0.0729,3.65605 z m -0.0804,-15.551134 c 0,-1.527969 0.0437,-2.153047 0.0972,-1.389063 0.0535,0.763984 0.0535,2.014141 0,2.778125 -0.0534,0.763984 -0.0972,0.138906 -0.0972,-1.389062 z M 350.4393,0.415199 c 0.002,-0.873125 0.0509,-1.198415 0.10977,-0.722866 0.0589,0.475549 0.0577,1.189924 -0.003,1.5875 -0.0604,0.397576 -0.10855,0.0085 -0.10707,-0.864634 z M 139.28654,-0.113968 c 0.003,-0.582083 0.0571,-0.789054 0.1204,-0.459936 0.0633,0.329118 0.0609,0.805368 -0.005,1.058334 -0.0662,0.252965 -0.118,-0.01632 -0.11506,-0.598398 z M 139.4844,-1.6678 c 0,-1.380384 0.66434,-6.111864 1.3607,-9.69096 4.64213,-23.859287 17.21674,-45.486345 36.0784,-62.051212 7.71417,-6.77481 18.32749,-13.344647 28.40637,-17.584066 5.76959,-2.426823 15.89157,-5.507105 19.48265,-5.928882 0.73732,-0.0866 0.15172,0.117946 -1.32291,0.462082 -14.31817,3.341442 -25.68479,8.291534 -37.30625,16.246645 -16.6285,11.382521 -30.71539,28.798902 -38.75715,47.917575 -3.58093,8.513366 -6.55563,19.710313 -7.42532,27.949317 -0.27723,2.626288 -0.51649,3.86757 -0.51649,2.679501 z m 210.65991,-0.298251 c 0.005,-0.436563 0.0647,-0.583126 0.13177,-0.325694 0.0671,0.257431 0.0627,0.614619 -0.01,0.79375 -0.0725,0.17913 -0.12736,-0.03149 -0.12197,-0.468056 z m -0.27439,-2.248959 c 0,-0.363802 0.0601,-0.51263 0.13346,-0.330729 0.0734,0.181901 0.0734,0.479557 0,0.661458 -0.0734,0.181902 -0.13346,0.03307 -0.13346,-0.330729 z m -0.23963,-1.719791 c 0.003,-0.582084 0.0571,-0.789054 0.1204,-0.459936 0.0633,0.329118 0.0609,0.805368 -0.005,1.058333 -0.0662,0.252966 -0.118,-0.01632 -0.11507,-0.598397 z m -0.44155,-2.53559 c -0.0994,-0.749453 -0.12751,-1.415896 -0.0624,-1.480987 0.0651,-0.06509 0.20232,0.492213 0.30495,1.238452 0.10264,0.746238 0.13073,1.412681 0.0624,1.480986 -0.0683,0.0683 -0.20553,-0.488997 -0.30495,-1.238451 z m -0.39804,-2.248958 c 0.0127,-0.308227 0.0754,-0.37092 0.15985,-0.159854 0.0764,0.190995 0.067,0.419201 -0.0209,0.507119 -0.0879,0.08792 -0.15045,-0.06835 -0.13897,-0.347265 z m -0.38054,-1.488813 c -0.0893,-0.333193 -0.15195,-0.843931 -0.13932,-1.134973 0.0126,-0.291042 0.13194,-0.06471 0.26513,0.502954 0.25795,1.099397 0.14772,1.653141 -0.12581,0.632019 z m -0.55169,-2.737173 c -0.0996,-0.530977 -0.1282,-1.018331 -0.0635,-1.083006 0.0647,-0.06468 0.1991,0.316844 0.29871,0.847823 0.0996,0.530976 0.12819,1.018331 0.0635,1.083006 -0.0647,0.06468 -0.1991,-0.316844 -0.29871,-0.847823 z m -0.39068,-1.859431 c 0.0127,-0.308226 0.0754,-0.370919 0.15985,-0.159853 0.0764,0.190994 0.067,0.4192 -0.0209,0.507119 -0.0879,0.08792 -0.15045,-0.06835 -0.13896,-0.347266 z m -0.28548,-0.903994 c 0,-0.194027 0.0794,-0.273402 0.17639,-0.17639 0.097,0.09701 0.097,0.255765 0,0.35278 -0.097,0.09701 -0.17639,0.01764 -0.17639,-0.17639 z m -0.26458,-0.9066 c 0,-0.20759 -0.52901,-2.079673 -1.17558,-4.160182 -0.64657,-2.080511 -1.13146,-3.82687 -1.07754,-3.880794 0.11287,-0.112864 2.16601,6.32922 2.41677,7.58299 0.0919,0.459481 0.0927,0.835419 0.002,0.835419 -0.0909,0 -0.16536,-0.169846 -0.16536,-0.377433 z m -2.64583,-8.6184 c 0,-0.194027 0.0794,-0.273402 0.17639,-0.17639 0.097,0.09701 0.097,0.255765 0,0.352779 -0.097,0.09701 -0.17639,0.01764 -0.17639,-0.176389 z m -0.36419,-0.936271 c -0.25532,-0.665345 -0.18,-0.837022 0.1319,-0.300656 0.15444,0.265575 0.22506,0.538601 0.15693,0.606724 -0.0681,0.06812 -0.19809,-0.06961 -0.28883,-0.306068 z m -0.66475,-1.738961 c -0.163,-0.467587 -0.25006,-0.896463 -0.19347,-0.953053 0.0566,-0.05659 0.23626,0.279678 0.39926,0.747266 0.163,0.467587 0.25007,0.896464 0.19347,0.953053 -0.0566,0.05659 -0.23626,-0.279678 -0.39926,-0.747266 z m -0.78017,-1.966309 c -0.4433,-0.97295 -0.35873,-1.180515 0.12062,-0.296005 0.22384,0.413046 0.35748,0.800502 0.29696,0.861012 -0.0605,0.06051 -0.24842,-0.193741 -0.41758,-0.565007 z m -0.9216,-2.117632 c -0.62155,-1.303409 -0.53411,-1.525202 0.1157,-0.293466 0.29513,0.559438 0.4898,1.063956 0.4326,1.121159 -0.0572,0.0572 -0.30393,-0.315262 -0.5483,-0.827693 z m -2.37164,-5.02647 c -0.97588,-1.958104 -1.71621,-3.560191 -1.64518,-3.560191 0.17507,0 3.62873,6.911158 3.512,7.027889 -0.0509,0.05087 -0.89094,-1.509593 -1.86682,-3.467698 z m -3.37555,-6.250419 c -2.58713,-4.482724 -8.18597,-12.542909 -10.23011,-14.727436 -0.26085,-0.278773 -1.03988,-1.206577 -1.73117,-2.061787 -0.69128,-0.855207 -3.25113,-3.494757 -5.68854,-5.865662 -5.05475,-4.916829 -5.7925,-5.5899 -8.5327,-7.784626 -2.69498,-2.158514 -3.1879,-2.702047 -0.92604,-1.021131 3.68757,2.740443 11.80489,10.472328 15.57587,14.836286 4.44323,5.141926 10.27661,13.503133 12.72786,18.243326 0.87501,1.692079 0.14519,0.703466 -1.19517,-1.61897 z m -31.07731,-34.118172 c -2.58593,-1.847845 -2.80943,-2.194542 -0.32233,-0.500023 1.72599,1.175959 2.62437,1.90817 2.25617,1.838865 -0.045,-0.0085 -0.91519,-0.610942 -1.93384,-1.338842 z m -3.92339,-2.639452 c -1.34506,-0.890934 -1.69397,-1.333852 -0.49091,-0.623186 0.93822,0.554214 2.08243,1.428207 1.87997,1.435986 -0.0842,0.0032 -0.70927,-0.362524 -1.38906,-0.8128 z m -3.00552,-1.913546 c -1.81977,-1.113134 -2.15323,-1.510821 -0.47942,-0.571757 1.1671,0.654783 2.31643,1.487948 1.97492,1.431653 -0.0676,-0.01114 -0.74054,-0.39809 -1.4955,-0.859896 z m -6.56484,-3.638174 c -2.47385,-1.290675 -4.40098,-2.349866 -4.28249,-2.353763 0.30044,-0.0099 7.86822,3.843473 8.51582,4.336074 0.86183,0.655553 0.48007,0.47679 -4.23333,-1.982311 z m -5.95313,-2.890013 c -0.50932,-0.278841 -0.80697,-0.506986 -0.66145,-0.506986 0.14552,0 0.6813,0.228145 1.19062,0.506986 0.50932,0.278842 0.80698,0.506987 0.66146,0.506987 -0.14552,0 -0.6813,-0.228145 -1.19063,-0.506987 z m -2.51354,-1.077364 c -0.58208,-0.279924 -0.76067,-0.434848 -0.39687,-0.344276 0.74916,0.186512 2.1245,0.87607 1.71979,0.862258 -0.14552,-0.005 -0.74083,-0.238059 -1.32292,-0.517982 z m -1.98437,-0.774719 c -0.21828,-0.141064 -0.27781,-0.25648 -0.13229,-0.25648 0.14552,0 0.44317,0.115416 0.66145,0.25648 0.21829,0.141065 0.27782,0.256479 0.1323,0.256479 -0.14552,0 -0.44318,-0.115414 -0.66146,-0.256479 z m -3.43959,-1.190625 c -1.38244,-0.486467 -2.38704,-0.893836 -2.23244,-0.905264 0.32785,-0.02423 4.89604,1.496293 5.09594,1.696188 0.26058,0.260577 -0.37135,0.08603 -2.8635,-0.790924 z m -4.7625,-1.472643 c -0.93903,-0.319241 -1.13009,-0.438943 -0.53864,-0.337468 1.07413,0.184291 2.97038,0.850143 2.39073,0.839487 -0.21828,-0.004 -1.05172,-0.229922 -1.85209,-0.502019 z m -2.16627,-0.692473 c 0.19099,-0.07643 0.4192,-0.06703 0.50712,0.02089 0.0879,0.08792 -0.0683,0.150453 -0.34727,0.138965 -0.30822,-0.01269 -0.37092,-0.07539 -0.15985,-0.159855 z m -1.05833,-0.264583 c 0.19099,-0.07643 0.4192,-0.06703 0.50711,0.02089 0.0879,0.08792 -0.0683,0.150453 -0.34726,0.138964 -0.30823,-0.01269 -0.37092,-0.07539 -0.15985,-0.159854 z m -1.05834,-0.264583 c 0.191,-0.07643 0.4192,-0.06703 0.50712,0.02089 0.0879,0.08792 -0.0683,0.150453 -0.34726,0.138964 -0.30823,-0.01269 -0.37092,-0.07539 -0.15986,-0.159852 z m -2.33164,-0.348426 c -0.51831,-0.165995 -0.54695,-0.210769 -0.13229,-0.206906 0.29104,0.0027 0.88635,0.09582 1.32292,0.206906 0.71297,0.181422 0.72644,0.202476 0.13229,0.206905 -0.3638,0.0027 -0.95912,-0.0904 -1.32292,-0.206905 z m -1.37252,-0.445324 c 0.19099,-0.07643 0.4192,-0.06703 0.50711,0.02089 0.0879,0.08792 -0.0684,0.150453 -0.34726,0.138964 -0.30823,-0.0127 -0.37092,-0.07539 -0.15985,-0.159854 z m -1.60404,-0.259072 c 0.1819,-0.0734 0.47956,-0.0734 0.66146,0 0.1819,0.0734 0.0331,0.133453 -0.33073,0.133453 -0.3638,0 -0.51263,-0.06005 -0.33073,-0.133453 z m -2.84427,-0.353938 -1.19063,-0.185106 1.05834,-0.0084 c 0.58208,-0.0046 1.41552,0.08245 1.85208,0.193541 0.69885,0.177827 0.71467,0.200966 0.13229,0.19354 -0.3638,-0.0046 -1.19724,-0.09173 -1.85208,-0.19354 z m -2.57969,-0.446967 c 0.25466,-0.06655 0.67138,-0.06655 0.92604,0 0.25466,0.06655 0.0463,0.121 -0.46302,0.121 -0.50932,0 -0.71768,-0.05445 -0.46302,-0.121 z m -1.71979,-0.257428 c 0.1819,-0.0734 0.47956,-0.0734 0.66146,0 0.1819,0.0734 0.0331,0.133452 -0.33073,0.133452 -0.3638,0 -0.51263,-0.06005 -0.33073,-0.133452 z m -3.03767,-0.272709 c 0.25743,-0.06708 0.61461,-0.06267 0.79375,0.0098 0.17913,0.07248 -0.0315,0.127362 -0.46806,0.12197 -0.43656,-0.0054 -0.58313,-0.06469 -0.32569,-0.131773 z"
         id="path1325" /><path
         style="fill:#eda89a;stroke-width:0.264583"
         d="m 240.55523,117.21587 c -7.13659,-0.36276 -11.27794,-0.94555 -17.99167,-2.53189 -26.88715,-6.35297 -51.11962,-23.371115 -66.26273,-46.535445 -8.86715,-13.56403 -14.15159,-28.09662 -16.45184,-45.24375 -0.63455,-4.73018 -0.70984,-6.11986 -0.70964,-13.09688 1.6e-4,-5.647357 0.11567,-8.646401 0.41782,-10.847915 0.22967,-1.673489 0.49464,-3.757083 0.58882,-4.630208 0.0942,-0.873125 0.52906,-3.432969 0.96641,-5.688542 7.19476,-37.105601 34.03551,-68.652042 69.14307,-81.265149 5.77145,-2.073508 15.14866,-4.51212 16.35589,-4.253467 0.45448,0.09737 0.4712,1.069607 0.37101,21.57748 -0.11077,22.676253 -0.081,22.082554 -1.36387,27.164052 -1.83066,7.251107 -5.49221,14.965831 -9.81572,20.681257 -4.0941,5.412179 -8.18292,9.365883 -13.85821,13.400284 -8.31913,5.913829 -13.53085,11.275166 -18.95248,19.496585 -5.74706,8.714883 -9.2561,18.105633 -10.87537,29.104163 -0.65593,4.45528 -0.65265,15.57504 0.006,20.24063 1.19335,8.45352 3.17218,15.04388 6.63359,22.09271 5.42329,11.04399 13.27425,20.07796 23.31761,26.831175 12.53275,8.42709 26.6438,12.5032 41.78863,12.07105 7.6954,-0.21959 13.93573,-1.67262 20.28473,-4.72319 13.43448,-6.45503 23.14672,-19.768395 25.2093,-34.556455 0.52919,-3.79412 0.5303,-10.3941 0.002,-13.94963 -0.75329,-5.07311 -2.95605,-11.49042 -5.43665,-15.83857 -7.74559,-13.57691 -21.25487,-22.04435 -37.14935,-23.28471 l -2.38125,-0.18582 -0.10319,-60.629723 c -0.096,-56.398983 -0.0724,-60.655323 0.33884,-60.99658 0.35725,-0.296489 1.36668,-0.336678 5.26257,-0.209523 15.65897,0.511084 32.84189,5.634054 46.74506,13.936721 5.87935,3.511018 12.03575,7.921281 16.01922,11.475688 2.67117,2.38346 10.04809,9.722231 11.17853,11.120737 0.69129,0.85521 1.47032,1.783014 1.73117,2.061787 0.93839,1.002837 4.6618,6.023642 6.4641,8.716462 2.92874,4.375839 5.49439,8.874292 7.86561,13.791082 4.20385,8.716798 6.09704,14.339554 8.75381,25.998662 0.19896,0.873125 0.55757,2.897188 0.79691,4.497917 0.23934,1.600729 0.54429,3.624792 0.67768,4.497917 0.3539,2.31662 0.57871,16.710143 0.28307,18.123963 -0.17532,0.83848 -0.2415,-1.07874 -0.22375,-6.4823 0.0212,-6.442913 -0.0674,-8.393947 -0.55254,-12.17083 -0.96689,-7.527621 -3.30203,-17.644367 -5.3437,-23.151042 -4.62487,-12.474962 -10.29883,-22.63403 -18.1781,-32.548034 -4.46313,-5.615676 -12.25238,-13.316072 -17.81806,-17.614803 -14.96898,-11.561506 -31.85723,-18.73561 -49.76112,-21.138463 -3.61562,-0.485247 -12.98098,-1.074338 -13.55823,-0.852827 -0.41496,0.159234 -0.44523,3.390632 -0.44523,47.523958 0,26.044208 0.0978,47.413528 0.21726,47.487378 0.11949,0.07385 0.16715,5.900577 0.10591,12.948283 -0.0813,9.35491 -0.0306,12.86394 0.18794,12.99898 0.16461,0.10173 1.4564,0.29369 2.87065,0.42658 7.37463,0.69293 15.48161,3.49649 21.54663,7.45125 10.27165,6.69775 17.46302,17.47737 20.08118,30.10103 0.55617,2.68163 0.63106,3.74917 0.63106,8.99584 0,5.16211 -0.0807,6.35157 -0.60755,8.95185 -1.30134,6.4232 -4.09164,12.98742 -7.66653,18.03565 -2.64889,3.740605 -8.26403,9.262885 -11.81339,11.618045 -6.61511,4.38942 -13.54447,6.87717 -21.82869,7.83685 -5.36646,0.62167 -5.11805,1.02101 0.51082,0.82117 11.77938,-0.4182 24.18535,-3.22682 35.41134,-8.01685 27.3421,-11.666645 48.72476,-33.822515 59.27879,-61.422385 2.97938,-7.79138 5.31447,-17.68334 6.10125,-25.84621 0.45503,-4.72092 0.504,-4.93054 0.3709,-1.5875 -0.45494,11.42665 -4.33305,25.25261 -10.57067,37.68583 -7.17031,14.2923 -17.85712,27.25184 -30.79773,37.34739 -13.69536,10.684345 -30.40207,18.107465 -46.96354,20.866805 -4.09168,0.68172 -14.7656,1.68349 -16.59749,1.5577 -0.33024,-0.0227 -2.32684,-0.12898 -4.43689,-0.23622 z m -4.30499,-0.94072 c -0.0879,-0.0879 -0.31612,-0.0973 -0.50712,-0.0209 -0.21106,0.0845 -0.14837,0.14717 0.15985,0.15986 0.27892,0.0115 0.43519,-0.0511 0.34727,-0.13896 z m -2.92695,-0.28112 c -0.097,-0.097 -0.25577,-0.097 -0.35278,0 -0.097,0.097 -0.0176,0.17639 0.17639,0.17639 0.19402,0 0.2734,-0.0794 0.17639,-0.17639 z m -5.02709,-0.79375 c -0.097,-0.097 -0.25576,-0.097 -0.35278,0 -0.097,0.097 -0.0176,0.17639 0.17639,0.17639 0.19403,0 0.27341,-0.0794 0.17639,-0.17639 z m -1.43316,-0.26343 c -0.1819,-0.0734 -0.47955,-0.0734 -0.66146,0 -0.1819,0.0734 -0.0331,0.13346 0.33073,0.13346 0.36381,0 0.51263,-0.0601 0.33073,-0.13346 z m -1.91823,-0.4115 c -3.24995,-0.94099 -9.89261,-3.28442 -12.21046,-4.30767 -7.03477,-3.1056 -14.55111,-8.17394 -20.11173,-13.561505 -4.16701,-4.03732 -6.80775,-7.19406 -9.87349,-11.80274 -7.4798,-11.24428 -11.22848,-23.42461 -11.69627,-38.00386 -0.61054,-19.02781 5.6984,-36.41645 18.40432,-50.725886 3.45595,-3.89209 6.10154,-6.131714 14.34763,-12.145976 9.89207,-7.214746 18.03435,-19.433221 21.15592,-31.747001 1.53856,-6.069256 1.57158,-6.671082 1.57158,-28.644784 0,-20.006611 -0.004,-20.140523 -0.53253,-20.140523 -0.95926,0 -10.63986,2.585194 -13.88726,3.708579 -19.02006,6.57968 -35.75638,18.323392 -48.13715,33.777363 -13.76163,17.177592 -21.79391,36.593869 -24.00577,58.028643 -0.44387,4.301488 -0.43817,17.941835 0.009,21.960415 2.40587,21.6121 10.94625,41.63355 24.60371,57.67917 2.37567,2.79108 8.95769,9.40844 11.82479,11.88829 7.01944,6.07134 15.5906,11.742015 23.79899,15.745405 6.45115,3.14634 14.46099,6.11572 20.24062,7.50353 1.23693,0.29701 2.72521,0.65612 3.3073,0.79801 1.39988,0.34126 2.37515,0.33351 1.19062,-0.009 z m 19.89311,-26.272195 c 0.0999,-0.10076 1.11182,-0.34473 2.24868,-0.54215 5.62045,-0.97601 11.29629,-5.89178 13.46966,-11.6659 3.13618,-8.33205 -0.72357,-18.1361 -8.67192,-22.02733 -2.23592,-1.09463 -4.76823,-1.87653 -6.07742,-1.87653 -0.3974,0 -0.78455,-0.10033 -0.86033,-0.22294 -0.0758,-0.12262 0.54227,-0.1206 1.37345,0.004 6.9346,1.04365 12.36644,5.50798 14.71448,12.09355 0.76864,2.15582 0.81231,2.48924 0.80103,6.11657 -0.0123,3.94106 -0.28211,5.28364 -1.52014,7.56305 -0.23041,0.42423 -0.63021,1.18804 -0.88843,1.69736 -0.59847,1.18041 -2.13164,2.91948 -4.17152,4.73175 -1.74247,1.54805 -5.01711,3.23479 -7.1596,3.68786 -2.19628,0.46444 -3.44991,0.63383 -3.25794,0.44022 z"
         id="path1323" /><path
         style="fill:#78c6bb;stroke-width:0.264583"
         d="m 239.62919,115.6204 c -6.43905,-0.68925 -12.75553,-2.85086 -18.62986,-6.37542 -11.2404,-6.7442 -18.59281,-17.186005 -21.38125,-30.365375 -0.63655,-3.00864 -0.70287,-3.86048 -0.7015,-9.01128 10e-4,-4.69498 0.10152,-6.2306 0.57405,-8.79202 2.29973,-12.46611 9.41925,-23.57656 19.36625,-30.22221 6.86494,-4.58652 15.47645,-7.47205 22.75899,-7.62603 l 2.77582,-0.0587 0.0685,14.13092 c 0.0462,9.5283 0.16046,14.24174 0.35087,14.47116 0.15531,0.18714 0.7198,0.38042 1.25443,0.42952 0.53463,0.0491 -0.21858,0.0953 -1.67378,0.10267 -3.10115,0.0157 -5.3196,0.53948 -7.80521,1.84273 -6.10687,3.20191 -9.57862,9.00844 -9.56859,16.00354 0.007,5.02889 1.51392,8.60066 5.19525,12.31574 1.95677,1.97471 2.79583,2.6098 4.63792,3.5105 2.38636,1.16681 5.09953,1.86908 7.27604,1.88331 0.93858,0.006 1.20762,0.0815 0.92604,0.25941 -0.34159,0.21583 -0.4153,2.15934 -0.52916,13.952725 l -0.13229,13.70195 -1.32292,0.0367 c -0.72761,0.0202 -2.27542,-0.0652 -3.43958,-0.18987 z m 6.28385,-27.942795 c 0.25466,-0.0666 0.67138,-0.0666 0.92604,0 0.25467,0.0666 0.0463,0.121 -0.46302,0.121 -0.50932,0 -0.71768,-0.0545 -0.46302,-0.121 z m 2.84427,-0.55821 c 0.80037,-0.27197 2.08029,-0.81391 2.84428,-1.20432 0.76398,-0.39041 1.38906,-0.64242 1.38906,-0.56004 0,0.27071 -3.81574,1.9635 -4.7625,2.1128 -0.65055,0.1026 -0.49313,-10e-4 0.52916,-0.34844 z m 5.61068,-2.93226 c 0.68477,-0.61092 1.9204,-1.85016 2.74584,-2.75385 0.82544,-0.9037 1.25641,-1.2859 0.95771,-0.84933 -0.57851,0.84552 -3.53621,3.76151 -4.41943,4.35712 -0.29105,0.19626 0.0311,-0.14301 0.71588,-0.75394 z m 4.17891,-4.66152 c 0,-0.0728 0.0595,-0.13229 0.13229,-0.13229 0.0728,0 0.13229,0.0595 0.13229,0.13229 0,0.0728 -0.0595,0.13229 -0.13229,0.13229 -0.0728,0 -0.13229,-0.0595 -0.13229,-0.13229 z m 0.84768,-1.43748 c 0.32939,-0.57233 0.64418,-0.99531 0.69954,-0.93995 0.11426,0.11426 -0.99749,1.98056 -1.17983,1.98056 -0.0652,0 0.15089,-0.46827 0.48029,-1.04061 z m 0.74792,-1.47293 c 0,-0.14553 0.11542,-0.44318 0.25648,-0.66146 0.14107,-0.21828 0.25648,-0.27782 0.25648,-0.13229 0,0.14552 -0.11541,0.44317 -0.25648,0.66145 -0.14106,0.21829 -0.25648,0.27782 -0.25648,0.1323 z m 0.52106,-1.45521 c 0,-0.19403 0.0794,-0.2734 0.17639,-0.17639 0.097,0.097 0.097,0.25576 0,0.35278 -0.097,0.097 -0.17639,0.0176 -0.17639,-0.17639 z m 0.30636,-1.05834 c 0,-0.3638 0.0601,-0.51263 0.13346,-0.33073 0.0734,0.18191 0.0734,0.47956 0,0.66146 -0.0734,0.1819 -0.13346,0.0331 -0.13346,-0.33073 z m 0.27439,-1.4552 c 0.005,-0.43657 0.0647,-0.58313 0.13177,-0.3257 0.0671,0.25743 0.0627,0.61462 -0.01,0.79375 -0.0725,0.17913 -0.12736,-0.0315 -0.12197,-0.46805 z m 0.29983,-2.91042 c 10e-4,-1.01865 0.049,-1.40294 0.10627,-0.854 0.0573,0.54895 0.0563,1.38239 -0.002,1.85209 -0.0585,0.4697 -0.10531,0.0205 -0.10414,-0.99809 z m -0.29983,-2.64583 c 0.005,-0.43657 0.0647,-0.58313 0.13177,-0.3257 0.0671,0.25743 0.0627,0.61462 -0.01,0.79375 -0.0725,0.17913 -0.12736,-0.0315 -0.12197,-0.46805 z m -0.29527,-1.34497 c 0.0127,-0.30823 0.0754,-0.37092 0.15985,-0.15985 0.0764,0.19099 0.067,0.4192 -0.0209,0.50712 -0.0879,0.0879 -0.15045,-0.0684 -0.13896,-0.34727 z m -0.49714,-1.61837 c -0.16517,-0.53818 -0.25652,-1.0223 -0.20299,-1.07583 0.0535,-0.0535 0.24013,0.33534 0.41465,0.86417 0.17453,0.52882 0.26587,1.01294 0.20299,1.07583 -0.0629,0.0629 -0.24948,-0.32599 -0.41465,-0.86417 z m -0.92726,-2.33165 c -0.24201,-0.5075 -0.38547,-0.92272 -0.3188,-0.92272 0.18105,0 0.98423,1.62002 0.8632,1.74105 -0.0574,0.0574 -0.30239,-0.31084 -0.5444,-0.81833 z m -0.87072,-1.49277 c -0.11696,-0.18926 -0.0726,-0.23364 0.11668,-0.11668 0.16801,0.10384 0.30546,0.2413 0.30546,0.30547 0,0.2207 -0.23364,0.11621 -0.42214,-0.18879 z m -1.82347,-2.26307 c -0.87129,-0.96664 -2.29265,-2.21544 -3.15858,-2.77512 -1.95914,-1.26625 -2.23542,-1.55066 -0.69654,-0.717 1.27471,0.69054 4.2079,3.3012 5.07115,4.51353 0.82535,1.15909 0.51262,0.89642 -1.21603,-1.02141 z m -5.4273,-4.17834 c 0,-0.0728 0.0595,-0.13229 0.13229,-0.13229 0.0728,0 0.13229,0.0595 0.13229,0.13229 0,0.0728 -0.0595,0.13229 -0.13229,0.13229 -0.0728,0 -0.13229,-0.0595 -0.13229,-0.13229 z m -1.05834,-0.39688 c -0.21828,-0.14106 -0.27781,-0.25648 -0.13229,-0.25648 0.14552,0 0.44318,0.11542 0.66146,0.25648 0.21828,0.14107 0.27781,0.25648 0.13229,0.25648 -0.14552,0 -0.44317,-0.11541 -0.66146,-0.25648 z m -0.97014,-0.44097 c 0.097,-0.097 0.25577,-0.097 0.35278,0 0.097,0.097 0.0176,0.17639 -0.17639,0.17639 -0.19402,0 -0.2734,-0.0794 -0.17639,-0.17639 z m -1.67569,-0.35278 c -0.53174,-0.17029 -0.55769,-0.21336 -0.13229,-0.21961 0.29104,-0.004 0.76729,0.0945 1.05833,0.21961 0.67422,0.28972 -0.0214,0.28972 -0.92604,0 z m -3.04379,-103.514606 c 9.6e-4,-41.963889 0.0468,-47.426295 0.39796,-47.452043 0.22669,-0.01662 0.25537,0.01845 0.0669,0.08179 -0.26164,0.08791 -0.34409,9.918672 -0.39796,47.452044 l -0.068,47.341159 0.001,-47.422947 z m 80.14457,-9.238774 c -0.11697,-0.189257 -0.0726,-0.233643 0.11667,-0.116676 0.305,0.1885 0.40949,0.42214 0.18879,0.42214 -0.0642,0 -0.20163,-0.137459 -0.30546,-0.305464 z m -5.02709,-5.55625 c -0.11696,-0.189257 -0.0726,-0.233643 0.11668,-0.116676 0.305,0.188499 0.40949,0.42214 0.18879,0.42214 -0.0642,0 -0.20163,-0.137459 -0.30547,-0.305464 z m -1.32279,-1.348182 -0.50402,-0.595313 0.59531,0.504029 c 0.32742,0.277214 0.59531,0.545105 0.59531,0.595312 0,0.211733 -0.21293,0.05542 -0.6866,-0.504028 z m -1.83939,-1.852084 -1.04588,-1.124479 1.12448,1.045885 c 1.04575,0.972661 1.24606,1.203074 1.04588,1.203074 -0.0432,0 -0.54924,-0.506016 -1.12448,-1.12448 z m -3.84403,-3.571875 -0.64144,-0.727604 0.72761,0.641432 c 0.40018,0.35279 0.7276,0.680212 0.7276,0.727604 0,0.207508 -0.21426,0.03862 -0.81377,-0.641432 z m -2.51866,-2.248958 -0.50403,-0.595313 0.59532,0.504029 c 0.32742,0.277215 0.59531,0.545105 0.59531,0.595313 0,0.211732 -0.21294,0.05542 -0.6866,-0.504029 z m -1.43007,-1.124479 c 0,-0.07276 0.0595,-0.132292 0.13229,-0.132292 0.0728,0 0.13229,0.05953 0.13229,0.132292 0,0.07276 -0.0595,0.132291 -0.13229,0.132291 -0.0728,0 -0.13229,-0.05953 -0.13229,-0.132291 z m -1.05833,-0.79375 c 0,-0.07276 0.0595,-0.132292 0.13229,-0.132292 0.0728,0 0.13229,0.05953 0.13229,0.132292 0,0.07276 -0.0595,0.132291 -0.13229,0.132291 -0.0728,0 -0.13229,-0.05953 -0.13229,-0.132291 z m -1.32292,-1.058334 c 0,-0.07276 0.0595,-0.132291 0.13229,-0.132291 0.0728,0 0.13229,0.05953 0.13229,0.132291 0,0.07276 -0.0595,0.132292 -0.13229,0.132292 -0.0728,0 -0.13229,-0.05953 -0.13229,-0.132292 z m -0.68672,-0.437755 c -0.11697,-0.189257 -0.0726,-0.233643 0.11667,-0.116676 0.305,0.188499 0.40949,0.42214 0.18879,0.42214 -0.0642,0 -0.20163,-0.137459 -0.30546,-0.305464 z m -1.16536,-0.885161 c 0,-0.07276 0.0595,-0.132292 0.13229,-0.132292 0.0728,0 0.13229,0.05953 0.13229,0.132292 0,0.07276 -0.0595,0.132291 -0.13229,0.132291 -0.0728,0 -0.13229,-0.05953 -0.13229,-0.132291 z m -1.5875,-1.058334 c 0,-0.07276 0.0595,-0.132291 0.13229,-0.132291 0.0728,0 0.13229,0.05953 0.13229,0.132291 0,0.07276 -0.0595,0.132292 -0.13229,0.132292 -0.0728,0 -0.13229,-0.05953 -0.13229,-0.132292 z m -0.8275,-0.595312 c -0.32911,-0.419645 -0.31975,-0.429004 0.0999,-0.0999 0.44073,0.345643 0.58089,0.562917 0.36313,0.562917 -0.0549,0 -0.2633,-0.20836 -0.46302,-0.463021 z m -1.5875,-1.058333 c -0.33589,-0.428297 -0.32344,-0.433912 0.16604,-0.07487 0.29104,0.213484 0.57878,0.421843 0.63941,0.46302 0.0606,0.04118 -0.0141,0.07487 -0.16604,0.07487 -0.15196,0 -0.43969,-0.208359 -0.63941,-0.46302 z m -1.55375,-0.992188 c 0,-0.07276 0.0595,-0.132292 0.13229,-0.132292 0.0728,0 0.13229,0.05953 0.13229,0.132292 0,0.07276 -0.0595,0.132292 -0.13229,0.132292 -0.0728,0 -0.13229,-0.05953 -0.13229,-0.132292 z m -0.68673,-0.437756 c -0.11696,-0.189256 -0.0726,-0.233643 0.11668,-0.116676 0.305,0.1885 0.40949,0.42214 0.18879,0.42214 -0.0642,0 -0.20163,-0.137459 -0.30547,-0.305464 z m -1.42994,-0.885161 c 0,-0.07276 0.0595,-0.132291 0.13229,-0.132291 0.0728,0 0.13229,0.05953 0.13229,0.132291 0,0.07276 -0.0595,0.132292 -0.13229,0.132292 -0.0728,0 -0.13229,-0.05953 -0.13229,-0.132292 z m -1.32292,-0.79375 c 0,-0.07276 0.0595,-0.132291 0.1323,-0.132291 0.0728,0 0.13229,0.05953 0.13229,0.132291 0,0.07276 -0.0595,0.132292 -0.13229,0.132292 -0.0728,0 -0.1323,-0.05953 -0.1323,-0.132292 z m -1.85208,-1.058333 c 0,-0.07276 0.0595,-0.132292 0.13229,-0.132292 0.0728,0 0.13229,0.05953 0.13229,0.132292 0,0.07276 -0.0595,0.132292 -0.13229,0.132292 -0.0728,0 -0.13229,-0.05953 -0.13229,-0.132292 z m -1.05833,-0.529167 c 0,-0.07276 0.0595,-0.132291 0.13229,-0.132291 0.0728,0 0.13229,0.05953 0.13229,0.132291 0,0.07276 -0.0595,0.132292 -0.13229,0.132292 -0.0728,0 -0.13229,-0.05953 -0.13229,-0.132292 z m -0.52917,-0.264583 c 0,-0.07276 0.0595,-0.132292 0.13229,-0.132292 0.0728,0 0.13229,0.05953 0.13229,0.132292 0,0.07276 -0.0595,0.132292 -0.13229,0.132292 -0.0728,0 -0.13229,-0.05953 -0.13229,-0.132292 z m -0.52917,-0.264583 c 0,-0.07276 0.0595,-0.132292 0.1323,-0.132292 0.0728,0 0.13229,0.05953 0.13229,0.132292 0,0.07276 -0.0595,0.132291 -0.13229,0.132291 -0.0728,0 -0.1323,-0.05953 -0.1323,-0.132291 z m -0.52916,-0.264584 c 0,-0.07276 0.0595,-0.132291 0.13229,-0.132291 0.0728,0 0.13229,0.05953 0.13229,0.132291 0,0.07276 -0.0595,0.132292 -0.13229,0.132292 -0.0728,0 -0.13229,-0.05953 -0.13229,-0.132292 z m -1.5875,-0.79375 c 0,-0.07276 0.0595,-0.132292 0.13229,-0.132292 0.0728,0 0.13229,0.05953 0.13229,0.132292 0,0.07276 -0.0595,0.132292 -0.13229,0.132292 -0.0728,0 -0.13229,-0.05953 -0.13229,-0.132292 z m -2.11667,-1.058333 c 0,-0.07276 0.0595,-0.132292 0.13229,-0.132292 0.0728,0 0.13229,0.05953 0.13229,0.132292 0,0.07276 -0.0595,0.132291 -0.13229,0.132291 -0.0728,0 -0.13229,-0.05953 -0.13229,-0.132291 z"
         id="path1321" /><path
         style="fill:#faa633;stroke-width:0.264583"
         d="m 246.11148,22.904785 c 0,-0.0728 0.0595,-0.13229 0.13229,-0.13229 0.0728,0 0.13229,0.0595 0.13229,0.13229 0,0.0728 -0.0595,0.13229 -0.13229,0.13229 -0.0728,0 -0.13229,-0.0595 -0.13229,-0.13229 z m -1.31957,-11.64167 c 0.0293,-6.111874 0.11261,-11.844562 0.18518,-12.739306 l 0.13196,-1.626809 1.3059,-0.710764 c 1.68662,-0.917969 4.78652,-3.397345 6.34065,-5.071401 2.97348,-3.202932 5.34669,-7.310295 6.63048,-11.475514 l 0.60973,-1.978289 0.13544,-35.851043 c 0.1197,-31.683638 0.18157,-35.840811 0.53231,-35.763018 0.70098,0.155474 5.54815,3.18929 7.63514,4.77879 6.70785,5.108869 11.92541,11.508669 15.65714,19.204882 2.13305,4.39914 2.90929,6.508867 4.09067,11.117888 1.92564,7.512674 2.40085,17.012581 1.20864,24.161621 -2.17025,13.01388 -8.39223,24.795179 -17.91099,33.914422 -3.80317,3.643556 -6.66549,5.806255 -12.73112,9.619361 -1.18325,0.74384 -1.43678,1.21975 -0.66145,1.24161 0.25466,0.007 21.10956,0.003 46.34423,-0.009 l 45.88121,-0.022 -0.1935,4.96984 c -0.10643,2.73341 -0.27423,5.50562 -0.37288,6.16047 l -0.17938,1.19062 h -52.34629 -52.34629 l 0.0532,-11.1125 z"
         id="path1319" /><path
         style="fill:#f95542;stroke-width:0.264583"
         d="m 244.39169,116.74701 c 0.14552,-0.15661 1.88106,-0.47201 3.85676,-0.70088 8.28422,-0.95967 15.21358,-3.44743 21.82869,-7.83685 3.54936,-2.35516 9.1645,-7.87744 11.81339,-11.618035 3.57489,-5.04823 6.36519,-11.61245 7.66653,-18.03565 0.52682,-2.60028 0.60755,-3.78974 0.60755,-8.95185 0,-5.24667 -0.0749,-6.31421 -0.63106,-8.99584 -2.61816,-12.62366 -9.80953,-23.40328 -20.08118,-30.10103 -5.85463,-3.81758 -13.92615,-6.6659 -21.11561,-7.45141 -1.31754,-0.14396 1.58305,-0.17849 7.82889,-0.0932 5.45703,0.0745 26.41203,0.24387 46.56666,0.37636 20.15464,0.1325 38.01402,0.30601 39.6875,0.38558 2.99418,0.14237 3.94293,8e-4 6.53992,-0.97639 0.52947,-0.19922 0.57522,-0.15065 0.46841,0.49726 -1.5697,9.52206 -2.14271,12.22159 -3.7362,17.60166 -6.20961,20.96534 -20.15861,40.82299 -38.32942,54.56533 -17.36023,13.129315 -38.11501,20.727855 -58.60325,21.455245 -3.30133,0.1172 -4.55615,0.0826 -4.36758,-0.12029 z m 23.18411,-2.95785 c 0.27286,0 0.4961,-0.12952 0.4961,-0.28784 0,-0.3518 -2.11828,-0.0568 -2.51354,0.35006 -0.18071,0.18601 0.0185,0.21932 0.62838,0.10507 0.49113,-0.092 1.11621,-0.16728 1.38906,-0.16729 z m 1.81901,-1.19063 c 0,-0.0728 -0.0595,-0.13229 -0.13229,-0.13229 -0.0728,0 -0.13229,0.0595 -0.13229,0.13229 0,0.0728 0.0595,0.1323 0.13229,0.1323 0.0728,0 0.13229,-0.0595 0.13229,-0.1323 z m 15.11526,-16.073435 c 0.28764,-0.53981 0.27617,-0.56145 -0.12298,-0.23219 -0.24211,0.19973 -0.44019,0.46762 -0.44019,0.59532 0,0.40415 0.23511,0.25255 0.56317,-0.36313 z m 3.14099,-6.02839 c 0,-0.57707 -0.0893,-1.04696 -0.19843,-1.04421 -0.33032,0.008 -1.63411,2.91305 -1.48359,3.3053 0.10281,0.26793 0.34582,0.15504 0.91112,-0.42325 0.5893,-0.60285 0.7709,-1.03579 0.7709,-1.83784 z m -2.64583,-44.55756 c 0,-0.0642 -0.11906,-0.19026 -0.26458,-0.2802 -0.14552,-0.0899 -0.26459,-0.0374 -0.26459,0.11668 0,0.15411 0.11907,0.2802 0.26459,0.2802 0.14552,0 0.26458,-0.0525 0.26458,-0.11668 z m -2.91042,-5.02708 c 0,-0.0642 -0.13745,-0.20163 -0.30546,-0.30546 -0.18926,-0.11697 -0.23364,-0.0726 -0.11668,0.11667 0.1885,0.305 0.42214,0.40949 0.42214,0.18879 z m -46.35169,75.342195 c 0.191,-0.0764 0.4192,-0.067 0.50712,0.0209 0.0879,0.0879 -0.0683,0.15046 -0.34727,0.13897 -0.30822,-0.0127 -0.37091,-0.0754 -0.15985,-0.15985 z m -2.77261,-0.26024 c 0.097,-0.097 0.25576,-0.097 0.35278,0 0.097,0.097 0.0176,0.17639 -0.17639,0.17639 -0.19403,0 -0.2734,-0.0794 -0.17639,-0.17639 z m -5.02709,-0.79374 c 0.097,-0.097 0.25577,-0.097 0.35278,0 0.097,0.097 0.0176,0.17639 -0.17639,0.17639 -0.19402,0 -0.2734,-0.0794 -0.17639,-0.17639 z m -1.74184,-0.26343 c 0.18191,-0.0734 0.47956,-0.0734 0.66146,0 0.1819,0.0734 0.0331,0.13346 -0.33073,0.13346 -0.3638,0 -0.51263,-0.0601 -0.33073,-0.13346 z m -2.44739,-0.40204 c -0.58208,-0.14189 -2.07036,-0.501 -3.30729,-0.79801 -5.77963,-1.38781 -13.78948,-4.3572 -20.24063,-7.50353 -8.20838,-4.0034 -16.77955,-9.674065 -23.79899,-15.745405 -2.8671,-2.47985 -9.44912,-9.09721 -11.82478,-11.88829 -10.27471,-12.07135 -17.81507,-26.68741 -21.81787,-42.29126 -1.04375,-4.06879 -2.29546,-10.98272 -2.78585,-15.38791 -0.44735,-4.01858 -0.45305,-17.658927 -0.009,-21.960415 2.21188,-21.434774 10.24416,-40.851051 24.00579,-58.028643 7.80739,-9.745371 17.06813,-17.790914 28.16111,-24.465796 6.42191,-3.864203 12.73236,-6.805732 19.97604,-9.311567 3.2474,-1.123385 12.928,-3.708579 13.88726,-3.708579 0.52899,0 0.53253,0.133912 0.53253,20.140523 0,21.973702 -0.033,22.575528 -1.57158,28.644784 -3.12157,12.31378 -11.26385,24.532255 -21.15592,31.747001 -8.24609,6.014262 -10.89168,8.253886 -14.34763,12.145976 -12.70592,14.309436 -19.01486,31.698076 -18.40432,50.725886 0.46779,14.57925 4.21647,26.75958 11.69627,38.00386 3.06574,4.60868 5.70648,7.76542 9.87349,11.80274 5.56062,5.387565 13.07696,10.455905 20.11173,13.561505 2.31785,1.02325 8.96051,3.36668 12.21046,4.30767 1.18453,0.34297 0.20927,0.35072 -1.19062,0.009 z m -16.80104,-6.43419 c 0,-0.0728 -0.0595,-0.1323 -0.13229,-0.1323 -0.0728,0 -0.1323,0.0595 -0.1323,0.1323 0,0.0728 0.0595,0.13229 0.1323,0.13229 0.0728,0 0.13229,-0.0595 0.13229,-0.13229 z m -3.175,-1.45521 c 0,-0.14552 -0.18562,-0.26458 -0.41249,-0.26458 -0.22687,0 -0.33891,0.11906 -0.24897,0.26458 0.0899,0.14553 0.27556,0.26459 0.41249,0.26459 0.13693,0 0.24897,-0.11906 0.24897,-0.26459 z m -0.95605,-0.7452 c 0.0734,-0.11882 -0.24696,-0.43541 -0.71199,-0.70353 -0.46503,-0.26814 -1.0241,-0.64407 -1.24238,-0.83545 -1.52691,-1.33866 -2.36883,-1.94916 -2.68804,-1.94916 -0.20307,0 -0.63383,-0.18534 -0.95725,-0.41188 -0.4744,-0.33227 -0.58804,-0.34173 -0.58804,-0.049 0,0.19958 0.42888,0.56739 0.95306,0.81736 0.52418,0.24996 1.01432,0.68873 1.08919,0.97505 0.0749,0.2863 0.28468,0.52055 0.46625,0.52055 0.18156,0 0.85228,0.4106 1.49049,0.91244 1.13708,0.89412 1.9228,1.15388 2.18871,0.72362 z m -7.57677,-5.73436 c -0.69122,-0.648395 -1.25677,-1.301225 -1.25677,-1.450715 0,-0.14949 -0.14141,-0.27181 -0.31424,-0.27181 -0.29771,0 -1.96373,-1.53438 -5.14445,-4.73797 -0.78126,-0.78688 -1.42047,-1.262 -1.42047,-1.05583 0,0.20616 0.23812,0.52356 0.52916,0.70532 0.29105,0.18175 0.52917,0.46046 0.52917,0.61934 0,0.15888 0.53313,0.82964 1.18474,1.49058 0.6516,0.66094 1.25494,1.42291 1.34074,1.69326 0.0858,0.27035 0.31983,0.49155 0.52005,0.49155 0.20023,0 0.51963,0.22134 0.70978,0.49186 0.6511,0.92628 3.52028,3.191545 4.0499,3.197445 0.41776,0.005 0.26459,-0.24229 -0.72761,-1.17303 z M 164.8844,77.938115 c 0,-0.0728 -0.0595,-0.13229 -0.13229,-0.13229 -0.0728,0 -0.1323,0.0595 -0.1323,0.13229 0,0.0728 0.0595,0.13229 0.1323,0.13229 0.0728,0 0.13229,-0.0595 0.13229,-0.13229 z m 5.46805,-41.58368 c -0.097,-0.097 -0.17639,-0.0176 -0.17639,0.17639 0,0.19403 0.0794,0.2734 0.17639,0.17639 0.097,-0.097 0.097,-0.25577 0,-0.35278 z m 0.61736,-2.86632 c 0,-0.0728 -0.0595,-0.13229 -0.13229,-0.13229 -0.0728,0 -0.13229,0.0595 -0.13229,0.13229 0,0.0728 0.0595,0.13229 0.13229,0.13229 0.0728,0 0.13229,-0.0595 0.13229,-0.13229 z m 2.11667,-9.39271 c 0,-0.14552 -0.11906,-0.26458 -0.26458,-0.26458 -0.14552,0 -0.26459,0.11906 -0.26459,0.26458 0,0.14552 0.11907,0.26459 0.26459,0.26459 0.14552,0 0.26458,-0.11907 0.26458,-0.26459 z m 1.32292,-3.99998 c 0,-0.14552 -0.11906,-0.191 -0.26459,-0.10106 -0.14552,0.0899 -0.26458,0.28258 -0.26458,0.4281 0,0.14553 0.11906,0.191 0.26458,0.10107 0.14553,-0.0899 0.26459,-0.28259 0.26459,-0.42811 z m 1.32291,-3.83645 c 0,-0.21829 -0.11906,-0.3233 -0.26458,-0.23336 -0.14552,0.0899 -0.26458,0.34212 -0.26458,0.5604 0,0.21828 0.11906,0.32329 0.26458,0.23335 0.14552,-0.0899 0.26458,-0.34211 0.26458,-0.56039 z m 0.44533,-1.47359 c -0.0845,-0.21107 -0.14716,-0.14838 -0.15985,0.15985 -0.0115,0.27891 0.051,0.43518 0.13896,0.34727 0.0879,-0.0879 0.0973,-0.31613 0.0209,-0.50712 z m 0.87759,-1.00873 c 0,-0.29104 -0.11906,-0.52916 -0.26458,-0.52916 -0.14552,0 -0.26459,0.23812 -0.26459,0.52916 0,0.29104 0.11907,0.52917 0.26459,0.52917 0.14552,0 0.26458,-0.23813 0.26458,-0.52917 z m 1.48026,-3.02795 c 0.0922,-0.628 -0.46091,-0.3677 -0.72277,0.34016 -0.18586,0.50243 -0.15258,0.55503 0.21944,0.34684 0.24119,-0.13498 0.46769,-0.44412 0.50333,-0.687 z m 1.02649,-1.72141 c 0.518,-1.001711 0.50983,-1.071471 -0.1255,-1.071471 -0.42837,0 -0.52917,0.17639 -0.52917,0.926041 0,1.12973 0.13066,1.15876 0.65467,0.14543 z m 1.61641,-2.72867 c 0.0962,-0.303094 0.40212,-0.794962 0.67982,-1.093042 0.53619,-0.575527 0.55885,-1.239546 0.0481,-1.409586 -0.16955,-0.05645 -0.38966,0.153797 -0.48914,0.467215 -0.0995,0.31342 -0.40723,0.796223 -0.68391,1.072898 -0.6212,0.6212 -0.73054,2.344142 -0.11642,1.834468 0.21265,-0.17648 0.46534,-0.56886 0.56154,-0.871953 z m 2.44164,-3.703651 c 0.12155,-0.631145 -0.27806,-0.578527 -0.69664,0.09173 -0.30384,0.486518 -0.28827,0.540872 0.13175,0.459983 0.26197,-0.05045 0.51617,-0.29872 0.56489,-0.551709 z m 1.2038,-1.650609 c 0.0928,-0.241752 5.3e-4,-0.396875 -0.23628,-0.396875 -0.21371,0 -0.38857,0.178594 -0.38857,0.396875 0,0.218282 0.10633,0.396875 0.23628,0.396875 0.12995,0 0.3048,-0.178593 0.38857,-0.396875 z m 1.22723,-1.719791 c 0,-0.145521 -0.0525,-0.264584 -0.11667,-0.264584 -0.0642,0 -0.19026,0.119063 -0.2802,0.264584 -0.0899,0.145521 -0.0374,0.264583 0.11668,0.264583 0.1541,0 0.28019,-0.119062 0.28019,-0.264583 z m 1.44391,-1.569218 c 0.19567,-0.3166 -0.30205,-0.630298 -0.65447,-0.41249 -0.2959,0.182874 -0.10165,0.658791 0.2689,0.658791 0.12834,0 0.30185,-0.110837 0.38557,-0.246301 z m 1.20193,-1.605782 c 0,-0.145521 -0.11204,-0.264584 -0.24897,-0.264584 -0.13693,0 -0.32255,0.119063 -0.41249,0.264584 -0.0899,0.14552 0.0221,0.264583 0.24897,0.264583 0.22687,0 0.41249,-0.119063 0.41249,-0.264583 z m 1.2015,-1.075936 c 0.31026,-0.502008 -0.14224,-0.625883 -0.60304,-0.165087 -0.41247,0.412472 -0.4132,0.447273 -0.009,0.447273 0.24087,0 0.51643,-0.126984 0.61236,-0.282186 z m 21.19989,-18.679621 c -0.097,-0.09701 -0.25577,-0.09701 -0.35278,0 -0.097,0.09701 -0.0176,0.176389 0.17639,0.176389 0.19402,0 0.2734,-0.07937 0.17639,-0.176389 z m 1.62608,-1.659157 c 0.0661,-0.198438 -0.0331,-0.297657 -0.23151,-0.231511 -0.191,0.06367 -0.39935,0.272024 -0.46302,0.463021 -0.0661,0.198437 0.0331,0.297656 0.23151,0.23151 0.191,-0.06367 0.39935,-0.272026 0.46302,-0.46302 z m 1.05503,-0.863204 c 0.17462,-0.174625 0.3175,-0.534365 0.3175,-0.799422 0,-0.265057 0.26789,-0.607523 0.59531,-0.761037 0.67858,-0.318156 2.05052,-2.330083 2.05052,-3.007061 0,-0.724858 -0.62252,-0.317646 -1.12656,0.736922 -0.25581,0.535205 -0.5752,0.973098 -0.70977,0.973098 -0.13457,0 -0.32242,0.244946 -0.41744,0.544322 -0.095,0.299379 -0.44546,0.648005 -0.77875,0.774724 -0.40152,0.152657 -0.64625,0.504645 -0.72529,1.043176 -0.12505,0.852008 0.22163,1.068128 0.79448,0.495278 z m 4.23272,-6.15297 c 0.21335,-0.468259 0.19432,-0.740616 -0.0776,-1.109924 -0.40326,-0.547765 -0.49345,-0.411544 -0.7631,1.152506 -0.17269,1.001697 0.37755,0.973826 0.84066,-0.04258 z m 1.1355,-1.926077 c 0.51826,-1.363125 1.12351,-2.583778 1.50308,-3.031373 0.20882,-0.24624 0.32723,-0.603428 0.26315,-0.79375 -0.0641,-0.19032 0.0568,-0.473779 0.26866,-0.629907 0.61926,-0.45638 1.11909,-2.162707 0.72848,-2.486888 -0.38184,-0.316899 -0.67034,-0.09217 -0.67034,0.522161 0,0.242734 -0.36322,0.764961 -0.80715,1.160502 -0.57961,0.516432 -0.76051,0.866079 -0.64174,1.240306 0.2433,0.766577 -0.1102,2.05218 -0.59032,2.146861 -0.41354,0.08155 -1.20539,2.173346 -0.9278,2.450933 0.31167,0.311669 0.61071,0.113615 0.87398,-0.578845 z m 4.20969,-10.420099 c 0,-0.14552 -0.11906,-0.191 -0.26458,-0.101062 -0.14552,0.08994 -0.26458,0.282583 -0.26458,0.428103 0,0.145521 0.11906,0.191 0.26458,0.101063 0.14552,-0.08994 0.26458,-0.282583 0.26458,-0.428104 z m 0.44098,-1.468077 c -0.097,-0.09701 -0.25577,-0.09701 -0.35278,0 -0.097,0.09701 -0.0176,0.17639 0.17639,0.17639 0.19402,0 0.2734,-0.07937 0.17639,-0.17639 z m 0.0882,-1.014235 c 0,-0.07276 -0.0595,-0.132292 -0.13229,-0.132292 -0.0728,0 -0.1323,0.05953 -0.1323,0.132292 0,0.07276 0.0595,0.132291 0.1323,0.132291 0.0728,0 0.13229,-0.05953 0.13229,-0.132291 z m 0.71452,-2.826814 c -0.43249,-0.267706 -0.71452,0.0013 -0.71452,0.681664 0,0.942129 0.36419,1.070944 0.70078,0.247867 0.22245,-0.543959 0.22621,-0.798015 0.0137,-0.929531 z M 350.19469,6.632907 c 0,-1.81901 0.0423,-2.563151 0.0939,-1.653646 0.0517,0.909506 0.0517,2.397787 0,3.307292 -0.0517,0.909502 -0.0939,0.165365 -0.0939,-1.653646 z m -0.29982,-5.423958 c 0.003,-0.582084 0.0571,-0.789054 0.12041,-0.459936 0.0633,0.329118 0.0609,0.805368 -0.005,1.058333 -0.0662,0.252966 -0.118,-0.01632 -0.11506,-0.598397 z m -0.28953,-2.778125 c 0,-0.363802 0.0601,-0.512631 0.13345,-0.330729 0.0734,0.181901 0.0734,0.479557 0,0.661458 -0.0734,0.181901 -0.13345,0.03307 -0.13345,-0.330729 z M 244.78856,-3.288968 c 0,-0.07276 0.0595,-0.132292 0.1323,-0.132292 0.0728,0 0.13229,0.05953 0.13229,0.132292 0,0.07276 -0.0595,0.132292 -0.13229,0.132292 -0.0728,0 -0.1323,-0.05953 -0.1323,-0.132292 z m 104.5522,-0.661458 c 0,-0.363802 0.0601,-0.512631 0.13345,-0.33073 0.0734,0.181902 0.0734,0.479558 0,0.661459 -0.0734,0.181901 -0.13345,0.03307 -0.13345,-0.330729 z m -0.25478,-1.984375 c 0.005,-0.436563 0.0647,-0.583126 0.13177,-0.325695 0.0671,0.257432 0.0627,0.61462 -0.01,0.79375 -0.0725,0.179131 -0.12737,-0.03149 -0.12197,-0.468055 z m -0.27439,-1.719792 c 0,-0.363802 0.06,-0.51263 0.13345,-0.330729 0.0734,0.181901 0.0734,0.479557 0,0.661458 -0.0734,0.181901 -0.13345,0.03307 -0.13345,-0.330729 z m -0.28547,-1.477256 c 0.0127,-0.308227 0.0754,-0.37092 0.15985,-0.159854 0.0764,0.190995 0.067,0.419201 -0.0209,0.507119 -0.0879,0.08792 -0.15046,-0.06835 -0.13897,-0.347265 z m -0.26458,-1.322917 c 0.0127,-0.308226 0.0754,-0.370919 0.15985,-0.159853 0.0764,0.190995 0.067,0.4192 -0.0209,0.507119 -0.0879,0.08792 -0.15045,-0.06835 -0.13896,-0.347266 z m -0.28548,-1.433161 c 0,-0.194026 0.0794,-0.273401 0.17639,-0.176389 0.097,0.09701 0.097,0.255764 0,0.352779 -0.097,0.09701 -0.17639,0.01764 -0.17639,-0.17639 z m -0.24369,-1.212672 c 0.0127,-0.308227 0.0754,-0.37092 0.15985,-0.159854 0.0764,0.190995 0.067,0.419201 -0.0209,0.507119 -0.0879,0.08792 -0.15046,-0.06835 -0.13897,-0.347265 z m -0.28547,-1.168578 c 0,-0.194027 0.0794,-0.273402 0.17639,-0.176389 0.097,0.09701 0.097,0.255764 0,0.352779 -0.097,0.09701 -0.17639,0.01764 -0.17639,-0.17639 z m -0.26459,-1.058333 c 0,-0.194027 0.0794,-0.273402 0.17639,-0.17639 0.097,0.09701 0.097,0.255765 0,0.35278 -0.097,0.09701 -0.17639,0.01764 -0.17639,-0.17639 z m -0.26458,-1.058333 c 0,-0.194027 0.0794,-0.273402 0.17639,-0.17639 0.097,0.09701 0.097,0.255765 0,0.352779 -0.097,0.09701 -0.17639,0.01764 -0.17639,-0.176389 z m -0.26458,-1.190625 c 0,-0.07276 0.0595,-0.132292 0.13229,-0.132292 0.0728,0 0.13229,0.05953 0.13229,0.132292 0,0.07276 -0.0595,0.132291 -0.13229,0.132291 -0.0728,0 -0.13229,-0.05953 -0.13229,-0.132291 z m -0.2437,-1.080381 c 0.0127,-0.308227 0.0754,-0.37092 0.15985,-0.159854 0.0764,0.190995 0.067,0.419201 -0.0209,0.507119 -0.0879,0.08792 -0.15045,-0.06835 -0.13897,-0.347265 z m -0.28547,-0.903994 c 0,-0.194027 0.0794,-0.273402 0.17639,-0.17639 0.097,0.09702 0.097,0.255765 0,0.352779 -0.097,0.09701 -0.17639,0.01764 -0.17639,-0.176389 z m -0.26458,-0.926042 c 0,-0.07276 0.0595,-0.132292 0.13229,-0.132292 0.0728,0 0.13229,0.05953 0.13229,0.132292 0,0.07276 -0.0595,0.132292 -0.13229,0.132292 -0.0728,0 -0.13229,-0.05953 -0.13229,-0.132292 z m -0.26459,-0.926042 c 0,-0.194027 0.0794,-0.273402 0.17639,-0.17639 0.097,0.09701 0.097,0.255765 0,0.35278 -0.097,0.09701 -0.17639,0.01764 -0.17639,-0.17639 z m -0.26458,-0.79375 c 0,-0.194027 0.0794,-0.273402 0.17639,-0.17639 0.097,0.09701 0.097,0.255765 0,0.35278 -0.097,0.09701 -0.17639,0.01764 -0.17639,-0.17639 z m -0.26458,-0.79375 c 0,-0.194027 0.0794,-0.273402 0.17639,-0.17639 0.097,0.09701 0.097,0.255765 0,0.35278 -0.097,0.09701 -0.17639,0.01764 -0.17639,-0.17639 z m -0.26459,-0.926042 c 0,-0.07276 0.0595,-0.132291 0.1323,-0.132291 0.0728,0 0.13229,0.05953 0.13229,0.132291 0,0.07276 -0.0595,0.132292 -0.13229,0.132292 -0.0728,0 -0.1323,-0.05953 -0.1323,-0.132292 z m -0.26458,-0.926041 c 0,-0.194027 0.0794,-0.273402 0.17639,-0.17639 0.097,0.09701 0.097,0.255765 0,0.35278 -0.097,0.09701 -0.17639,0.01764 -0.17639,-0.17639 z m -0.26458,-0.79375 c 0,-0.194027 0.0794,-0.273402 0.17639,-0.17639 0.097,0.09701 0.097,0.255765 0,0.35278 -0.097,0.09701 -0.17639,0.01764 -0.17639,-0.17639 z m -0.26459,-0.661459 c 0,-0.07276 0.0595,-0.132291 0.1323,-0.132291 0.0728,0 0.13229,0.05953 0.13229,0.132291 0,0.07276 -0.0595,0.132292 -0.13229,0.132292 -0.0728,0 -0.1323,-0.05953 -0.1323,-0.132292 z m -0.26458,-0.79375 c 0,-0.07276 0.0595,-0.132291 0.13229,-0.132291 0.0728,0 0.13229,0.05953 0.13229,0.132291 0,0.07276 -0.0595,0.132292 -0.13229,0.132292 -0.0728,0 -0.13229,-0.05953 -0.13229,-0.132292 z m -0.26458,-0.661458 c 0,-0.194027 0.0794,-0.273402 0.17639,-0.17639 0.097,0.09701 0.097,0.255765 0,0.35278 -0.097,0.09701 -0.17639,0.01764 -0.17639,-0.17639 z m -0.26459,-0.79375 c 0,-0.194027 0.0794,-0.273402 0.17639,-0.17639 0.097,0.09701 0.097,0.255765 0,0.35278 -0.097,0.09701 -0.17639,0.01764 -0.17639,-0.17639 z m -0.26458,-0.661458 c 0,-0.07276 0.0595,-0.132292 0.13229,-0.132292 0.0728,0 0.13229,0.05953 0.13229,0.132292 0,0.07276 -0.0595,0.132291 -0.13229,0.132291 -0.0728,0 -0.13229,-0.05953 -0.13229,-0.132291 z m -0.26458,-0.529167 c 0,-0.07276 0.0595,-0.132292 0.13229,-0.132292 0.0728,0 0.13229,0.05953 0.13229,0.132292 0,0.07276 -0.0595,0.132292 -0.13229,0.132292 -0.0728,0 -0.13229,-0.05953 -0.13229,-0.132292 z m -0.26459,-0.79375 c 0,-0.07276 0.0595,-0.132292 0.1323,-0.132292 0.0728,0 0.13229,0.05953 0.13229,0.132292 0,0.07276 -0.0595,0.132292 -0.13229,0.132292 -0.0728,0 -0.1323,-0.05953 -0.1323,-0.132292 z m -0.26458,-0.661458 c 0,-0.194027 0.0794,-0.273402 0.17639,-0.17639 0.097,0.09701 0.097,0.255765 0,0.352779 -0.097,0.09701 -0.17639,0.01764 -0.17639,-0.176389 z m -0.26458,-0.661459 c 0,-0.07276 0.0595,-0.132291 0.13229,-0.132291 0.0728,0 0.13229,0.05953 0.13229,0.132291 0,0.07276 -0.0595,0.132292 -0.13229,0.132292 -0.0728,0 -0.13229,-0.05953 -0.13229,-0.132292 z m -0.26459,-0.529166 c 0,-0.07276 0.0595,-0.132292 0.1323,-0.132292 0.0728,0 0.13229,0.05953 0.13229,0.132292 0,0.07276 -0.0595,0.132291 -0.13229,0.132291 -0.0728,0 -0.1323,-0.05953 -0.1323,-0.132291 z m -0.26458,-0.661459 c 0,-0.194027 0.0794,-0.273402 0.17639,-0.17639 0.097,0.09702 0.097,0.255765 0,0.35278 -0.097,0.09701 -0.17639,0.01764 -0.17639,-0.17639 z m -0.26458,-0.661458 c 0,-0.07276 0.0595,-0.132292 0.13229,-0.132292 0.0728,0 0.13229,0.05953 0.13229,0.132292 0,0.07276 -0.0595,0.132292 -0.13229,0.132292 -0.0728,0 -0.13229,-0.05953 -0.13229,-0.132292 z m -0.26459,-0.529167 c 0,-0.07276 0.0595,-0.132291 0.1323,-0.132291 0.0728,0 0.13229,0.05953 0.13229,0.132291 0,0.07276 -0.0595,0.132292 -0.13229,0.132292 -0.0728,0 -0.1323,-0.05953 -0.1323,-0.132292 z m -0.36418,-0.803979 c -0.25532,-0.665345 -0.18,-0.837022 0.1319,-0.300656 0.15443,0.265575 0.22505,0.538601 0.15693,0.606724 -0.0681,0.06812 -0.1981,-0.06961 -0.28883,-0.306068 z m -0.42957,-1.048104 c 0,-0.07276 0.0595,-0.132292 0.1323,-0.132292 0.0728,0 0.13229,0.05953 0.13229,0.132292 0,0.07276 -0.0595,0.132291 -0.13229,0.132291 -0.0728,0 -0.1323,-0.05953 -0.1323,-0.132291 z m -0.26458,-0.529167 c 0,-0.07276 0.0595,-0.132292 0.13229,-0.132292 0.0728,0 0.13229,0.05953 0.13229,0.132292 0,0.07276 -0.0595,0.132292 -0.13229,0.132292 -0.0728,0 -0.13229,-0.05953 -0.13229,-0.132292 z m -0.26458,-0.529167 c 0,-0.07276 0.0595,-0.132291 0.13229,-0.132291 0.0728,0 0.13229,0.05953 0.13229,0.132291 0,0.07276 -0.0595,0.132292 -0.13229,0.132292 -0.0728,0 -0.13229,-0.05953 -0.13229,-0.132292 z m -0.26459,-0.529166 c 0,-0.07276 0.0595,-0.132292 0.1323,-0.132292 0.0728,0 0.13229,0.05953 0.13229,0.132292 0,0.07276 -0.0595,0.132291 -0.13229,0.132291 -0.0728,0 -0.1323,-0.05953 -0.1323,-0.132291 z m -0.26458,-0.529167 c 0,-0.07276 0.0595,-0.132292 0.13229,-0.132292 0.0728,0 0.13229,0.05953 0.13229,0.132292 0,0.07276 -0.0595,0.132292 -0.13229,0.132292 -0.0728,0 -0.13229,-0.05953 -0.13229,-0.132292 z m -0.26458,-0.529167 c 0,-0.07276 0.0595,-0.132291 0.13229,-0.132291 0.0728,0 0.13229,0.05953 0.13229,0.132291 0,0.07276 -0.0595,0.132292 -0.13229,0.132292 -0.0728,0 -0.13229,-0.05953 -0.13229,-0.132292 z m -0.26459,-0.529166 c 0,-0.07276 0.0595,-0.132292 0.1323,-0.132292 0.0728,0 0.13229,0.05953 0.13229,0.132292 0,0.07276 -0.0595,0.132291 -0.13229,0.132291 -0.0728,0 -0.1323,-0.05953 -0.1323,-0.132291 z m -0.26458,-0.529167 c 0,-0.07276 0.0595,-0.132292 0.13229,-0.132292 0.0728,0 0.13229,0.05953 0.13229,0.132292 0,0.07276 -0.0595,0.132292 -0.13229,0.132292 -0.0728,0 -0.13229,-0.05953 -0.13229,-0.132292 z m -0.26458,-0.529167 c 0,-0.07276 0.0595,-0.132291 0.13229,-0.132291 0.0728,0 0.13229,0.05953 0.13229,0.132291 0,0.07276 -0.0595,0.132292 -0.13229,0.132292 -0.0728,0 -0.13229,-0.05953 -0.13229,-0.132292 z m -0.26459,-0.529166 c 0,-0.07276 0.0595,-0.132292 0.1323,-0.132292 0.0728,0 0.13229,0.05953 0.13229,0.132292 0,0.07276 -0.0595,0.132291 -0.13229,0.132291 -0.0728,0 -0.1323,-0.05953 -0.1323,-0.132291 z m -0.26458,-0.529167 c 0,-0.07276 0.0595,-0.132292 0.13229,-0.132292 0.0728,0 0.13229,0.05953 0.13229,0.132292 0,0.07276 -0.0595,0.132292 -0.13229,0.132292 -0.0728,0 -0.13229,-0.05953 -0.13229,-0.132292 z m -0.52917,-0.926042 c -0.15576,-0.291041 -0.22367,-0.529166 -0.15091,-0.529166 0.0728,0 0.25974,0.238125 0.4155,0.529166 0.15576,0.291042 0.22367,0.529167 0.15091,0.529167 -0.0728,0 -0.25974,-0.238125 -0.4155,-0.529167 z m -0.52916,-0.926041 c 0,-0.07276 0.0595,-0.132292 0.13229,-0.132292 0.0728,0 0.13229,0.05953 0.13229,0.132292 0,0.07276 -0.0595,0.132291 -0.13229,0.132291 -0.0728,0 -0.13229,-0.05953 -0.13229,-0.132291 z m -0.52917,-0.926042 c -0.15576,-0.291042 -0.22367,-0.529167 -0.15091,-0.529167 0.0728,0 0.25973,0.238125 0.41549,0.529167 0.15576,0.291042 0.22368,0.529167 0.15092,0.529167 -0.0728,0 -0.25974,-0.238125 -0.4155,-0.529167 z m -0.52917,-0.926042 c 0,-0.07276 0.0595,-0.132291 0.1323,-0.132291 0.0728,0 0.13229,0.05953 0.13229,0.132291 0,0.07276 -0.0595,0.132292 -0.13229,0.132292 -0.0728,0 -0.1323,-0.05953 -0.1323,-0.132292 z m -0.42214,-0.702339 c -0.11696,-0.189256 -0.0726,-0.233643 0.11668,-0.116676 0.16801,0.103833 0.30546,0.241292 0.30546,0.305464 0,0.2207 -0.23364,0.116211 -0.42214,-0.188788 z m -0.37161,-0.620577 c 0,-0.07276 0.0595,-0.132292 0.1323,-0.132292 0.0728,0 0.13229,0.05953 0.13229,0.132292 0,0.07276 -0.0595,0.132291 -0.13229,0.132291 -0.0728,0 -0.1323,-0.05953 -0.1323,-0.132291 z m -0.42214,-0.70234 c -0.11696,-0.189256 -0.0726,-0.233643 0.11668,-0.116676 0.16801,0.103834 0.30546,0.241293 0.30546,0.305465 0,0.220699 -0.23364,0.11621 -0.42214,-0.188789 z m -0.37161,-0.620577 c 0,-0.07276 0.0595,-0.132292 0.1323,-0.132292 0.0728,0 0.13229,0.05953 0.13229,0.132292 0,0.07276 -0.0595,0.132292 -0.13229,0.132292 -0.0728,0 -0.1323,-0.05953 -0.1323,-0.132292 z m -0.42214,-0.702339 c -0.11696,-0.189257 -0.0726,-0.233643 0.11668,-0.116676 0.16801,0.103833 0.30546,0.241292 0.30546,0.305464 0,0.220699 -0.23364,0.11621 -0.42214,-0.188788 z m -0.37161,-0.620578 c 0,-0.07276 0.0595,-0.132292 0.1323,-0.132292 0.0728,0 0.13229,0.05953 0.13229,0.132292 0,0.07276 -0.0595,0.132292 -0.13229,0.132292 -0.0728,0 -0.1323,-0.05953 -0.1323,-0.132292 z m -0.68672,-0.966922 c -0.11697,-0.189257 -0.0726,-0.233643 0.11668,-0.116676 0.168,0.103833 0.30546,0.241292 0.30546,0.305464 0,0.220699 -0.23364,0.11621 -0.42214,-0.188788 z m -0.52917,-0.79375 c -0.11696,-0.189257 -0.0726,-0.233643 0.11668,-0.116676 0.16801,0.103833 0.30546,0.241292 0.30546,0.305464 0,0.220699 -0.23364,0.11621 -0.42214,-0.188788 z m -0.52916,-0.79375 c -0.11697,-0.189257 -0.0726,-0.233643 0.11667,-0.116676 0.16801,0.103833 0.30547,0.241292 0.30547,0.305464 0,0.220699 -0.23364,0.11621 -0.42214,-0.188788 z m -0.52917,-0.79375 c -0.11697,-0.189257 -0.0726,-0.233643 0.11668,-0.116676 0.305,0.188499 0.40948,0.42214 0.18879,0.42214 -0.0642,0 -0.20164,-0.137459 -0.30547,-0.305464 z m -0.52917,-0.79375 c -0.11696,-0.189257 -0.0726,-0.233643 0.11668,-0.116676 0.305,0.188499 0.40949,0.42214 0.18879,0.42214 -0.0642,0 -0.20163,-0.137459 -0.30547,-0.305464 z m -0.79375,-1.058334 c -0.11696,-0.189256 -0.0726,-0.233643 0.11668,-0.116676 0.305,0.1885 0.40949,0.42214 0.18879,0.42214 -0.0642,0 -0.20163,-0.137459 -0.30547,-0.305464 z m -0.66994,-0.951307 c -0.32911,-0.419645 -0.31975,-0.429003 0.0999,-0.0999 0.44073,0.345644 0.58088,0.562917 0.36312,0.562917 -0.0549,0 -0.2633,-0.208359 -0.46302,-0.463021 z m -0.79375,-1.058333 c -0.32911,-0.419645 -0.31975,-0.429003 0.0999,-0.0999 0.44073,0.345644 0.58088,0.562917 0.36312,0.562917 -0.0549,0 -0.2633,-0.208359 -0.46302,-0.463021 z m -0.79375,-1.058333 c -0.32911,-0.419645 -0.31975,-0.429004 0.0999,-0.0999 0.44073,0.345643 0.58088,0.562917 0.36312,0.562917 -0.0549,0 -0.2633,-0.20836 -0.46302,-0.463021 z m -0.91756,-1.16536 c -0.11696,-0.189257 -0.0726,-0.233643 0.11668,-0.116676 0.16801,0.103833 0.30546,0.241292 0.30546,0.305464 0,0.220699 -0.23364,0.11621 -0.42214,-0.188788 z m -1.69452,-1.943494 c 0,-0.07276 0.0595,-0.132292 0.13229,-0.132292 0.0728,0 0.13229,0.05953 0.13229,0.132292 0,0.07276 -0.0595,0.132291 -0.13229,0.132291 -0.0728,0 -0.13229,-0.05953 -0.13229,-0.132291 z m -0.81378,-1.12448 -0.64143,-0.727604 0.7276,0.641432 c 0.40019,0.35279 0.72761,0.680212 0.72761,0.727604 0,0.207508 -0.21426,0.03862 -0.81378,-0.641432 z m -2.23888,-2.513541 -1.31297,-1.389063 1.38907,1.312971 c 1.29074,1.220036 1.5104,1.465154 1.31297,1.465154 -0.0419,0 -0.66693,-0.625078 -1.38907,-1.389062 z m -1.97443,-1.91823 c 0,-0.07276 0.0595,-0.132291 0.1323,-0.132291 0.0728,0 0.13229,0.05953 0.13229,0.132291 0,0.07276 -0.0595,0.132292 -0.13229,0.132292 -0.0728,0 -0.1323,-0.05953 -0.1323,-0.132292 z m -1.5875,-1.5875 c 0,-0.07276 0.0595,-0.132291 0.1323,-0.132291 0.0728,0 0.13229,0.05953 0.13229,0.132291 0,0.07276 -0.0595,0.132292 -0.13229,0.132292 -0.0728,0 -0.1323,-0.05953 -0.1323,-0.132292 z m -3.18924,-3.241146 -0.9118,-0.992187 0.99219,0.911799 c 0.92351,0.84868 1.11384,1.072576 0.9118,1.072576 -0.0442,0 -0.4907,-0.446484 -0.99219,-0.992188 z m -2.78915,-2.488276 c -0.11696,-0.189257 -0.0726,-0.233643 0.11668,-0.116676 0.305,0.1885 0.40949,0.42214 0.18879,0.42214 -0.0642,0 -0.20163,-0.137459 -0.30547,-0.305464 z m -0.90077,-0.620578 c 0,-0.07276 0.0595,-0.132292 0.13229,-0.132292 0.0728,0 0.13229,0.05953 0.13229,0.132292 0,0.07276 -0.0595,0.132292 -0.13229,0.132292 -0.0728,0 -0.13229,-0.05953 -0.13229,-0.132292 z m -1.74506,-1.496089 c -0.11697,-0.189256 -0.0726,-0.233643 0.11668,-0.116676 0.305,0.1885 0.40948,0.42214 0.18879,0.42214 -0.0642,0 -0.20164,-0.137459 -0.30547,-0.305464 z m -1.16536,-0.885161 c 0,-0.07276 0.0595,-0.132292 0.13229,-0.132292 0.0728,0 0.13229,0.05953 0.13229,0.132292 0,0.07276 -0.0595,0.132292 -0.13229,0.132292 -0.0728,0 -0.13229,-0.05953 -0.13229,-0.132292 z m -1.09208,-0.859896 c -0.32911,-0.419645 -0.31975,-0.429003 0.0999,-0.0999 0.44073,0.345644 0.58089,0.562917 0.36313,0.562917 -0.0549,0 -0.2633,-0.208359 -0.46302,-0.463021 z m -2.08292,-1.521354 c 0,-0.07276 0.0595,-0.132292 0.13229,-0.132292 0.0728,0 0.13229,0.05953 0.13229,0.132292 0,0.07276 -0.0595,0.132292 -0.13229,0.132292 -0.0728,0 -0.13229,-0.05953 -0.13229,-0.132292 z m -1.05833,-0.79375 c 0,-0.07276 0.0595,-0.132292 0.13229,-0.132292 0.0728,0 0.13229,0.05953 0.13229,0.132292 0,0.07276 -0.0595,0.132292 -0.13229,0.132292 -0.0728,0 -0.13229,-0.05953 -0.13229,-0.132292 z m -2.38125,-1.5875 c 0,-0.07276 0.0595,-0.132292 0.13229,-0.132292 0.0728,0 0.13229,0.05953 0.13229,0.132292 0,0.07276 -0.0595,0.132292 -0.13229,0.132292 -0.0728,0 -0.13229,-0.05953 -0.13229,-0.132292 z m -1.5875,-1.058333 c 0,-0.07276 0.0595,-0.132292 0.13229,-0.132292 0.0728,0 0.13229,0.05953 0.13229,0.132292 0,0.07276 -0.0595,0.132291 -0.13229,0.132291 -0.0728,0 -0.13229,-0.05953 -0.13229,-0.132291 z m -2.11667,-1.322917 c 0,-0.07276 0.0595,-0.132292 0.13229,-0.132292 0.0728,0 0.13229,0.05953 0.13229,0.132292 0,0.07276 -0.0595,0.132292 -0.13229,0.132292 -0.0728,0 -0.13229,-0.05953 -0.13229,-0.132292 z m -0.52917,-0.264583 c 0,-0.07276 0.0595,-0.132292 0.1323,-0.132292 0.0728,0 0.13229,0.05953 0.13229,0.132292 0,0.07276 -0.0595,0.132291 -0.13229,0.132291 -0.0728,0 -0.1323,-0.05953 -0.1323,-0.132291 z m -0.79375,-0.529167 c 0,-0.07276 0.0595,-0.132292 0.1323,-0.132292 0.0728,0 0.13229,0.05953 0.13229,0.132292 0,0.07276 -0.0595,0.132292 -0.13229,0.132292 -0.0728,0 -0.1323,-0.05953 -0.1323,-0.132292 z m -0.52916,-0.264583 c 0,-0.07276 0.0595,-0.132292 0.13229,-0.132292 0.0728,0 0.13229,0.05953 0.13229,0.132292 0,0.07276 -0.0595,0.132291 -0.13229,0.132291 -0.0728,0 -0.13229,-0.05953 -0.13229,-0.132291 z m -0.79375,-0.529167 c 0,-0.07276 0.0595,-0.132292 0.13229,-0.132292 0.0728,0 0.13229,0.05953 0.13229,0.132292 0,0.07276 -0.0595,0.132292 -0.13229,0.132292 -0.0728,0 -0.13229,-0.05953 -0.13229,-0.132292 z m -0.52917,-0.264583 c 0,-0.07276 0.0595,-0.132292 0.13229,-0.132292 0.0728,0 0.13229,0.05953 0.13229,0.132292 0,0.07276 -0.0595,0.132291 -0.13229,0.132291 -0.0728,0 -0.13229,-0.05953 -0.13229,-0.132291 z m -0.52917,-0.264584 c 0,-0.07276 0.0595,-0.132291 0.1323,-0.132291 0.0728,0 0.13229,0.05953 0.13229,0.132291 0,0.07276 -0.0595,0.132292 -0.13229,0.132292 -0.0728,0 -0.1323,-0.05953 -0.1323,-0.132292 z m -0.79375,-0.529167 c 0,-0.07276 0.0595,-0.132291 0.1323,-0.132291 0.0728,0 0.13229,0.05953 0.13229,0.132291 0,0.07276 -0.0595,0.132292 -0.13229,0.132292 -0.0728,0 -0.1323,-0.05953 -0.1323,-0.132292 z m -2.64583,-1.322916 c 0,-0.07276 0.0595,-0.132292 0.13229,-0.132292 0.0728,0 0.13229,0.05953 0.13229,0.132292 0,0.07276 -0.0595,0.132292 -0.13229,0.132292 -0.0728,0 -0.13229,-0.05953 -0.13229,-0.132292 z m -0.52917,-0.264583 c 0,-0.07276 0.0595,-0.132292 0.1323,-0.132292 0.0728,0 0.13229,0.05953 0.13229,0.132292 0,0.07276 -0.0595,0.132291 -0.13229,0.132291 -0.0728,0 -0.1323,-0.05953 -0.1323,-0.132291 z m -1.05833,-0.529167 c 0,-0.07276 0.0595,-0.132292 0.13229,-0.132292 0.0728,0 0.13229,0.05953 0.13229,0.132292 0,0.07276 -0.0595,0.132292 -0.13229,0.132292 -0.0728,0 -0.13229,-0.05953 -0.13229,-0.132292 z m -0.52917,-0.264583 c 0,-0.07276 0.0595,-0.132292 0.1323,-0.132292 0.0728,0 0.13229,0.05953 0.13229,0.132292 0,0.07276 -0.0595,0.132291 -0.13229,0.132291 -0.0728,0 -0.1323,-0.05953 -0.1323,-0.132291 z m -0.52916,-0.264584 c 0,-0.07276 0.0595,-0.132292 0.13229,-0.132292 0.0728,0 0.13229,0.05953 0.13229,0.132292 0,0.07276 -0.0595,0.132292 -0.13229,0.132292 -0.0728,0 -0.13229,-0.05953 -0.13229,-0.132292 z m -1.32292,-0.529167 c 0,-0.07276 0.0595,-0.132291 0.13229,-0.132291 0.0728,0 0.13229,0.05953 0.13229,0.132291 0,0.07276 -0.0595,0.132292 -0.13229,0.132292 -0.0728,0 -0.13229,-0.05953 -0.13229,-0.132292 z m -0.52917,-0.264583 c 0,-0.07276 0.0595,-0.132292 0.1323,-0.132292 0.0728,0 0.13229,0.05953 0.13229,0.132292 0,0.07276 -0.0595,0.132292 -0.13229,0.132292 -0.0728,0 -0.1323,-0.05953 -0.1323,-0.132292 z m -0.52916,-0.264583 c 0,-0.07276 0.0595,-0.132292 0.13229,-0.132292 0.0728,0 0.13229,0.05953 0.13229,0.132292 0,0.07276 -0.0595,0.132291 -0.13229,0.132291 -0.0728,0 -0.13229,-0.05953 -0.13229,-0.132291 z m -0.52917,-0.264584 c 0,-0.07276 0.0595,-0.132291 0.13229,-0.132291 0.0728,0 0.13229,0.05953 0.13229,0.132291 0,0.07276 -0.0595,0.132292 -0.13229,0.132292 -0.0728,0 -0.13229,-0.05953 -0.13229,-0.132292 z m -0.70556,-0.308681 c 0.097,-0.09701 0.25577,-0.09701 0.35278,0 0.097,0.09701 0.0176,0.17639 -0.17639,0.17639 -0.19402,0 -0.2734,-0.07937 -0.17639,-0.17639 z m -0.61736,-0.220485 c 0,-0.07276 0.0595,-0.132292 0.1323,-0.132292 0.0728,0 0.13229,0.05953 0.13229,0.132292 0,0.07276 -0.0595,0.132291 -0.13229,0.132291 -0.0728,0 -0.1323,-0.05953 -0.1323,-0.132291 z m -0.52916,-0.264584 c 0,-0.07276 0.0595,-0.132291 0.13229,-0.132291 0.0728,0 0.13229,0.05953 0.13229,0.132291 0,0.07276 -0.0595,0.132292 -0.13229,0.132292 -0.0728,0 -0.13229,-0.05953 -0.13229,-0.132292 z m -0.79375,-0.264583 c 0,-0.07276 0.0595,-0.132292 0.13229,-0.132292 0.0728,0 0.13229,0.05953 0.13229,0.132292 0,0.07276 -0.0595,0.132292 -0.13229,0.132292 -0.0728,0 -0.13229,-0.05953 -0.13229,-0.132292 z m -0.52917,-0.264583 c 0,-0.07276 0.0595,-0.132292 0.13229,-0.132292 0.0728,0 0.13229,0.05953 0.13229,0.132292 0,0.07276 -0.0595,0.132291 -0.13229,0.132291 -0.0728,0 -0.13229,-0.05953 -0.13229,-0.132291 z m -0.79375,-0.264584 c 0,-0.07276 0.0595,-0.132291 0.13229,-0.132291 0.0728,0 0.13229,0.05953 0.13229,0.132291 0,0.07276 -0.0595,0.132292 -0.13229,0.132292 -0.0728,0 -0.13229,-0.05953 -0.13229,-0.132292 z m -0.52917,-0.264583 c 0,-0.07276 0.0595,-0.132292 0.1323,-0.132292 0.0728,0 0.13229,0.05953 0.13229,0.132292 0,0.07276 -0.0595,0.132292 -0.13229,0.132292 -0.0728,0 -0.1323,-0.05953 -0.1323,-0.132292 z m -0.79375,-0.264583 c 0,-0.07276 0.0595,-0.132292 0.1323,-0.132292 0.0728,0 0.13229,0.05953 0.13229,0.132292 0,0.07276 -0.0595,0.132291 -0.13229,0.132291 -0.0728,0 -0.1323,-0.05953 -0.1323,-0.132291 z m -0.79375,-0.264584 c 0,-0.07276 0.0595,-0.132291 0.1323,-0.132291 0.0728,0 0.13229,0.05953 0.13229,0.132291 0,0.07276 -0.0595,0.132292 -0.13229,0.132292 -0.0728,0 -0.1323,-0.05953 -0.1323,-0.132292 z m -0.79375,-0.264583 c 0,-0.07276 0.0595,-0.132292 0.1323,-0.132292 0.0728,0 0.13229,0.05953 0.13229,0.132292 0,0.07276 -0.0595,0.132292 -0.13229,0.132292 -0.0728,0 -0.1323,-0.05953 -0.1323,-0.132292 z m -0.70555,-0.308681 c 0.097,-0.09701 0.25576,-0.09701 0.35278,0 0.097,0.09701 0.0176,0.176389 -0.17639,0.176389 -0.19403,0 -0.2734,-0.07937 -0.17639,-0.176389 z m -0.79375,-0.264583 c 0.097,-0.09701 0.25576,-0.09701 0.35278,0 0.097,0.09701 0.0176,0.176389 -0.17639,0.176389 -0.19403,0 -0.2734,-0.07938 -0.17639,-0.176389 z m -0.88195,-0.220486 c 0,-0.07276 0.0595,-0.132292 0.1323,-0.132292 0.0728,0 0.13229,0.05953 0.13229,0.132292 0,0.07276 -0.0595,0.132292 -0.13229,0.132292 -0.0728,0 -0.1323,-0.05953 -0.1323,-0.132292 z m -0.79375,-0.264583 c 0,-0.07276 0.0595,-0.132292 0.1323,-0.132292 0.0728,0 0.13229,0.05953 0.13229,0.132292 0,0.07276 -0.0595,0.132291 -0.13229,0.132291 -0.0728,0 -0.1323,-0.05953 -0.1323,-0.132291 z m -0.97014,-0.308681 c 0.097,-0.09701 0.25577,-0.09701 0.35278,0 0.097,0.09701 0.0176,0.176389 -0.17639,0.176389 -0.19402,0 -0.2734,-0.07937 -0.17639,-0.176389 z m -0.79375,-0.264583 c 0.097,-0.09701 0.25577,-0.09701 0.35278,0 0.097,0.09701 0.0176,0.176389 -0.17639,0.176389 -0.19402,0 -0.2734,-0.07937 -0.17639,-0.176389 z m -1.05833,-0.264584 c 0.097,-0.09701 0.25577,-0.09701 0.35278,0 0.097,0.09701 0.0176,0.176389 -0.17639,0.176389 -0.19403,0 -0.2734,-0.07937 -0.17639,-0.176389 z m -0.93155,-0.268935 c 0.19099,-0.07643 0.4192,-0.06703 0.50712,0.02089 0.0879,0.08792 -0.0683,0.150453 -0.34727,0.138965 -0.30822,-0.01269 -0.37092,-0.07539 -0.15985,-0.159853 z m -1.05833,-0.264583 c 0.19099,-0.07643 0.4192,-0.06703 0.50711,0.02089 0.0879,0.08792 -0.0683,0.150453 -0.34726,0.138965 -0.30823,-0.01269 -0.37092,-0.07539 -0.15985,-0.159855 z m -1.05834,-0.264583 c 0.191,-0.07643 0.4192,-0.06703 0.50712,0.02089 0.0879,0.08792 -0.0683,0.150453 -0.34726,0.138964 -0.30823,-0.01269 -0.37092,-0.07539 -0.15986,-0.159852 z m -1.05833,-0.264584 c 0.19099,-0.07643 0.4192,-0.06703 0.50712,0.02089 0.0879,0.08792 -0.0684,0.150453 -0.34727,0.138965 -0.30822,-0.01269 -0.37092,-0.07539 -0.15985,-0.159855 z m -1.33945,-0.259071 c 0.1819,-0.0734 0.47955,-0.0734 0.66145,0 0.1819,0.0734 0.0331,0.133452 -0.33073,0.133452 -0.3638,0 -0.51263,-0.06005 -0.33072,-0.133452 z m -1.0418,-0.270095 c 0.19099,-0.07643 0.4192,-0.06703 0.50712,0.02089 0.0879,0.08792 -0.0683,0.150453 -0.34727,0.138964 -0.30822,-0.01269 -0.37092,-0.07539 -0.15985,-0.159852 z m -1.32292,-0.264584 c 0.191,-0.07643 0.4192,-0.06703 0.50712,0.02089 0.0879,0.08792 -0.0683,0.150453 -0.34726,0.138965 -0.30823,-0.01269 -0.37092,-0.07539 -0.15986,-0.159855 z m -1.4497,-0.260231 c 0.097,-0.09701 0.25577,-0.09701 0.35278,0 0.097,0.09701 0.0176,0.176389 -0.17639,0.176389 -0.19402,0 -0.2734,-0.07937 -0.17639,-0.176389 z m -1.74183,-0.263423 c 0.1819,-0.0734 0.47955,-0.0734 0.66145,0 0.1819,0.0734 0.0331,0.133452 -0.33073,0.133452 -0.3638,0 -0.51263,-0.06005 -0.33072,-0.133452 z m -1.7198,-0.271739 c 0.25467,-0.06655 0.67138,-0.06655 0.92605,0 0.25466,0.06655 0.0463,0.121 -0.46303,0.121 -0.50932,0 -0.71768,-0.05445 -0.46302,-0.121 z m -1.84704,-0.265553 c 0.25743,-0.06708 0.61461,-0.06267 0.79375,0.0098 0.17913,0.07248 -0.0315,0.127362 -0.46806,0.121969 -0.43656,-0.0054 -0.58313,-0.06469 -0.32569,-0.131773 z m -2.5155,-0.268359 c 0.32912,-0.06329 0.80537,-0.06088 1.05834,0.0053 0.25296,0.06622 -0.0163,0.118003 -0.5984,0.115066 -0.58208,-0.0029 -0.78905,-0.05712 -0.45994,-0.120406 z m -2.77617,-0.260808 c 0.25743,-0.06708 0.61462,-0.06267 0.79375,0.0098 0.17913,0.07248 -0.0315,0.127362 -0.46806,0.12197 -0.43656,-0.0054 -0.58312,-0.06469 -0.32569,-0.131774 z m -5.82587,-0.27397 c 0.5457,-0.05708 1.43867,-0.05708 1.98437,0 0.54571,0.05708 0.0992,0.103786 -0.99218,0.103786 -1.09141,0 -1.53789,-0.0467 -0.99219,-0.103786 z"
         id="path1317" /><path
         style="fill:#f9583d;stroke-width:0.264583"
         d="m 265.55836,113.85137 c 0.39526,-0.40684 2.51354,-0.70186 2.51354,-0.35006 0,0.15832 -0.22324,0.28785 -0.4961,0.28785 -0.27285,0 -0.89793,0.0753 -1.38906,0.16728 -0.6099,0.11425 -0.80909,0.0809 -0.62838,-0.10507 z m 3.57187,-1.25284 c 0,-0.0728 0.0595,-0.13229 0.13229,-0.13229 0.0728,0 0.13229,0.0595 0.13229,0.13229 0,0.0728 -0.0595,0.1323 -0.13229,0.1323 -0.0728,0 -0.13229,-0.0595 -0.13229,-0.1323 z m -62.44167,-4.49791 c 0,-0.0728 0.0595,-0.1323 0.1323,-0.1323 0.0728,0 0.13229,0.0595 0.13229,0.1323 0,0.0728 -0.0595,0.13229 -0.13229,0.13229 -0.0728,0 -0.1323,-0.0595 -0.1323,-0.13229 z m -3.57187,-1.45521 c -0.0899,-0.14552 0.0221,-0.26458 0.24897,-0.26458 0.22687,0 0.41249,0.11906 0.41249,0.26458 0,0.14553 -0.11204,0.26459 -0.24897,0.26459 -0.13693,0 -0.32255,-0.11906 -0.41249,-0.26459 z m -2.4833,-1.46881 c -0.63821,-0.50184 -1.30893,-0.91244 -1.49049,-0.91244 -0.18157,0 -0.39138,-0.23425 -0.46625,-0.52056 -0.0749,-0.28631 -0.56501,-0.72508 -1.08919,-0.97504 -0.52418,-0.24997 -0.95306,-0.61778 -0.95306,-0.81736 0,-0.29274 0.11364,-0.28327 0.58804,0.049 0.32342,0.22654 0.75418,0.41188 0.95725,0.41188 0.31921,0 1.16113,0.6105 2.68804,1.94916 0.21828,0.19137 0.77735,0.56731 1.24238,0.83544 0.46503,0.26812 0.78543,0.58471 0.71199,0.70353 -0.26591,0.43026 -1.05163,0.1705 -2.18871,-0.72361 z m -6.77712,-5.193465 c -0.87312,-0.74242 -1.74308,-1.57118 -1.93323,-1.8417 -0.19015,-0.27052 -0.50955,-0.49186 -0.70978,-0.49186 -0.20022,0 -0.43424,-0.2212 -0.52005,-0.49155 -0.0858,-0.27035 -0.68914,-1.03232 -1.34074,-1.69326 -0.65161,-0.66094 -1.18474,-1.3317 -1.18474,-1.49058 0,-0.15888 -0.23812,-0.43759 -0.52917,-0.61934 -0.29104,-0.18176 -0.52916,-0.49916 -0.52916,-0.70532 0,-0.20617 0.63921,0.26895 1.42047,1.05583 3.18072,3.20359 4.84674,4.73797 5.14445,4.73797 0.17283,0 0.31424,0.12232 0.31424,0.27181 0,0.14949 0.56555,0.80232 1.25677,1.450715 1.83423,1.72061 0.66913,1.56734 -1.38906,-0.182715 z m 90.09063,-3.09491 c 0,-0.1277 0.19808,-0.39559 0.44019,-0.59532 0.39915,-0.32926 0.41062,-0.30762 0.12298,0.23219 -0.32806,0.61568 -0.56317,0.76728 -0.56317,0.36313 z m 2.02214,-4.13043 c -0.15052,-0.39225 1.15327,-3.29698 1.48359,-3.3053 0.10914,-0.003 0.19843,0.46714 0.19843,1.04421 0,0.80205 -0.1816,1.23499 -0.7709,1.83784 -0.5653,0.57829 -0.80831,0.69118 -0.91112,0.42325 z M 164.61981,77.938115 c 0,-0.0728 0.0595,-0.13229 0.1323,-0.13229 0.0728,0 0.13229,0.0595 0.13229,0.13229 0,0.0728 -0.0595,0.13229 -0.13229,0.13229 -0.0728,0 -0.1323,-0.0595 -0.1323,-0.13229 z m 119.85625,-32.16249 c 0,-0.15411 0.11907,-0.20661 0.26459,-0.11668 0.14552,0.0899 0.26458,0.21603 0.26458,0.2802 0,0.0642 -0.11906,0.11668 -0.26458,0.11668 -0.14552,0 -0.26459,-0.12609 -0.26459,-0.2802 z m -2.80339,-5.05235 c -0.11696,-0.18925 -0.0726,-0.23364 0.11668,-0.11667 0.305,0.1885 0.40949,0.42214 0.18879,0.42214 -0.0642,0 -0.20163,-0.13746 -0.30547,-0.30547 z m -111.49661,-4.19245 c 0,-0.19403 0.0794,-0.2734 0.17639,-0.17639 0.097,0.097 0.097,0.25576 0,0.35278 -0.097,0.097 -0.17639,0.0176 -0.17639,-0.17639 z m 0.52917,-3.04271 c 0,-0.0728 0.0595,-0.13229 0.13229,-0.13229 0.0728,0 0.13229,0.0595 0.13229,0.13229 0,0.0728 -0.0595,0.13229 -0.13229,0.13229 -0.0728,0 -0.13229,-0.0595 -0.13229,-0.13229 z m 1.85208,-9.39271 c 0,-0.14552 0.11907,-0.26458 0.26459,-0.26458 0.14552,0 0.26458,0.11906 0.26458,0.26458 0,0.14552 -0.11906,0.26459 -0.26458,0.26459 -0.14552,0 -0.26459,-0.11907 -0.26459,-0.26459 z m 166.29063,-0.52344 c -0.58208,-0.11048 -18.85818,-0.27642 -40.61354,-0.36875 -40.5371,-0.17204 -53.18125,-0.34743 -53.18125,-0.73766 0,-0.12223 23.45531,-0.22223 52.12291,-0.22223 33.89734,0 52.12292,0.0907 52.12292,0.25954 0,0.14275 -0.32742,0.3296 -0.7276,0.41523 -0.40019,0.0856 -1.20784,0.32602 -1.79479,0.5342 -1.14951,0.40773 -6.02343,0.4813 -7.92865,0.11967 z m -164.96771,-3.1495 c 0,-0.14552 0.11906,-0.33816 0.26458,-0.4281 0.14553,-0.0899 0.26459,-0.0445 0.26459,0.10106 0,0.14552 -0.11906,0.33817 -0.26459,0.42811 -0.14552,0.0899 -0.26458,0.0445 -0.26458,-0.10107 z m 1.32292,-3.83645 c 0,-0.21828 0.11906,-0.47046 0.26458,-0.5604 0.14552,-0.0899 0.26458,0.0151 0.26458,0.23336 0,0.21828 -0.11906,0.47045 -0.26458,0.56039 -0.14552,0.0899 -0.26458,-0.0151 -0.26458,-0.23335 z m 0.81464,-1.64078 c 0.0127,-0.30823 0.0754,-0.37092 0.15985,-0.15985 0.0764,0.19099 0.067,0.4192 -0.0209,0.50712 -0.0879,0.0879 -0.15046,-0.0684 -0.13897,-0.34727 z m 0.50827,-1.16858 c 0,-0.29104 0.11907,-0.52916 0.26459,-0.52916 0.14552,0 0.26458,0.23812 0.26458,0.52916 0,0.29104 -0.11906,0.52917 -0.26458,0.52917 -0.14552,0 -0.26459,-0.23813 -0.26459,-0.52917 z m 1.28666,-2.68779 c 0.1205,-0.32574 0.347,-0.63488 0.50334,-0.687 0.45193,-0.15064 0.20121,0.76235 -0.2839,1.03384 -0.37202,0.20819 -0.4053,0.15559 -0.21944,-0.34684 z m 80.11919,-0.96963 c -0.72032,-0.13899 -0.51505,-0.52333 0.68113,-1.2753 8.08474,-5.082397 12.88751,-9.131454 17.52973,-14.778736 5.60663,-6.820467 8.85828,-13.096873 11.994,-23.151043 l 0.28882,-0.926041 -0.14662,0.926041 c -0.32047,2.02419 -2.37572,7.610875 -4.09516,11.131649 -3.25463,6.664311 -6.99136,11.766931 -12.58788,17.189175 -3.68152,3.566869 -6.97561,6.167768 -10.86765,8.58071 -1.34685,0.835005 -2.51473,1.624845 -2.5953,1.755205 -0.0861,0.13928 18.86159,0.23701 45.95073,0.23701 25.35347,0 46.04176,0.0555 45.97398,0.12324 -0.1372,0.1372 -91.42363,0.32357 -92.12578,0.18809 z m -79.0246,-1.23737 c 0,-0.749651 0.1008,-0.926041 0.52917,-0.926041 0.63533,0 0.6435,0.06976 0.1255,1.071471 -0.52401,1.01333 -0.65467,0.9843 -0.65467,-0.14543 z m 1.32292,-2.216562 c 0,-0.459068 0.22352,-1.04966 0.50305,-1.329193 0.27667,-0.276675 0.58443,-0.759478 0.68391,-1.072898 0.0995,-0.313418 0.31959,-0.523664 0.48914,-0.467215 0.51073,0.17004 0.48807,0.834059 -0.0481,1.409586 -0.2777,0.29808 -0.58362,0.789948 -0.67982,1.093042 -0.0962,0.303093 -0.34889,0.695473 -0.56154,0.871953 -0.32507,0.26979 -0.38662,0.189349 -0.38662,-0.505275 z M 182.92339,2.6867 c 0.41858,-0.670253 0.81819,-0.722871 0.69664,-0.09173 -0.0487,0.252989 -0.30292,0.501258 -0.56489,0.551709 -0.42002,0.08089 -0.43559,0.02653 -0.13175,-0.459983 z m 1.27559,-1.742335 c 0,-0.218281 0.17486,-0.396875 0.38857,-0.396875 0.2367,0 0.32905,0.155123 0.23628,0.396875 -0.0838,0.218282 -0.25862,0.396875 -0.38857,0.396875 -0.12995,0 -0.23628,-0.178593 -0.23628,-0.396875 z m 1.45521,-1.719791 c 0.0899,-0.145521 0.21603,-0.264584 0.2802,-0.264584 0.0642,0 0.11667,0.119063 0.11667,0.264584 0,0.145521 -0.12609,0.264583 -0.28019,0.264583 -0.15411,0 -0.20662,-0.119062 -0.11668,-0.264583 z m 1.06963,-1.569218 c -0.19567,-0.3166 0.30206,-0.630298 0.65448,-0.41249 0.2959,0.182874 0.10164,0.658791 -0.2689,0.658791 -0.12835,0 -0.30186,-0.110837 -0.38558,-0.246301 z m 60.73025,-2.449711 c 4.53916,-2.98079 8.28177,-7.376403 10.33441,-12.137554 2.10359,-4.879324 1.92272,-1.17325 2.01327,-41.251329 0.0473,-20.959802 0.18058,-35.943871 0.32083,-36.084126 0.30647,-0.306466 3.90446,1.705262 6.93228,3.876015 5.83767,4.185232 10.76795,9.369724 14.25145,14.986281 2.44056,3.934997 6.11733,11.995759 6.06696,13.300898 -0.007,0.188257 -0.42307,-0.78881 -0.92401,-2.171258 -4.28186,-11.816591 -12.31099,-21.690272 -22.78077,-28.014256 -1.43443,-0.866426 -2.78664,-1.614931 -3.00493,-1.663345 -0.35074,-0.07779 -0.41261,4.07938 -0.53231,35.763018 l -0.13544,35.851043 -0.60973,1.978289 c -2.09297,6.790611 -6.86339,12.947404 -12.69093,16.379148 -2.29373,1.350743 -1.91013,0.939903 0.75892,-0.812824 z m -59.41863,0.843929 c 0.0899,-0.145521 0.27556,-0.264584 0.41249,-0.264584 0.13693,0 0.24897,0.119063 0.24897,0.264584 0,0.14552 -0.18562,0.264583 -0.41249,0.264583 -0.22687,0 -0.33891,-0.119063 -0.24897,-0.264583 z m 1.25992,-1.241023 c 0.246,-0.245999 0.52156,-0.372983 0.61236,-0.282186 0.2604,0.2604 -0.13935,0.729459 -0.62167,0.729459 -0.40389,0 -0.40316,-0.0348 0.009,-0.447273 z m 21.45015,-18.514534 c 0.097,-0.09701 0.25576,-0.09701 0.35278,0 0.097,0.09701 0.0176,0.176389 -0.17639,0.176389 -0.19403,0 -0.2734,-0.07937 -0.17639,-0.176389 z m 1.28433,-1.427647 c 0.0637,-0.190997 0.27202,-0.399354 0.46302,-0.463021 0.19844,-0.06615 0.29766,0.03307 0.23151,0.231511 -0.0637,0.190994 -0.27202,0.399354 -0.46302,0.46302 -0.19844,0.06615 -0.29766,-0.03307 -0.23151,-0.23151 z m 0.95508,-1.589992 c 0.079,-0.538531 0.32377,-0.890519 0.72529,-1.043176 0.33329,-0.126719 0.68373,-0.475345 0.77875,-0.774724 0.095,-0.299376 0.28287,-0.544322 0.41744,-0.544322 0.13457,0 0.45396,-0.437893 0.70977,-0.973098 0.50404,-1.054568 1.12656,-1.46178 1.12656,-0.736922 0,0.676978 -1.37194,2.688905 -2.05052,3.007061 -0.32742,0.153514 -0.59531,0.49598 -0.59531,0.761037 0,0.540877 -0.48126,1.116922 -0.93314,1.116922 -0.18231,0 -0.25179,-0.315759 -0.17884,-0.812778 z M 288.4657,-30.5631 c 0.0127,-0.308226 0.0754,-0.370919 0.15985,-0.159853 0.0764,0.190995 0.067,0.4192 -0.0209,0.507119 -0.0879,0.08792 -0.15045,-0.06835 -0.13897,-0.347266 z m 0.28547,-1.168577 c 0,-0.363802 0.0601,-0.51263 0.13346,-0.330729 0.0734,0.181901 0.0734,0.479557 0,0.661458 -0.0734,0.181901 -0.13346,0.03307 -0.13346,-0.330729 z m -71.57971,-0.607055 c 0.26965,-1.56405 0.35985,-1.700271 0.7631,-1.152506 0.4023,0.54646 0.0815,1.620446 -0.55724,1.865553 -0.2648,0.101611 -0.31583,-0.07516 -0.20586,-0.713047 z m 71.84907,-0.58357 c -0.009,-0.291042 0.0825,-1.005417 0.20286,-1.5875 0.18405,-0.889828 0.21876,-0.931953 0.21803,-0.264583 -10e-4,0.926782 -0.3962,2.665722 -0.42089,1.852083 z m -70.74689,-0.806244 c -0.27759,-0.277587 0.51426,-2.369381 0.9278,-2.450933 0.48012,-0.09468 0.83362,-1.380284 0.59032,-2.146861 -0.11877,-0.374227 0.0621,-0.723874 0.64174,-1.240306 0.44393,-0.395541 0.80715,-0.917768 0.80715,-1.160502 0,-0.614334 0.2885,-0.83906 0.67034,-0.522161 0.39061,0.324181 -0.10922,2.030508 -0.72848,2.486888 -0.21185,0.156128 -0.33275,0.439587 -0.26866,0.629907 0.0641,0.190322 -0.0543,0.54751 -0.26315,0.79375 -0.37957,0.447595 -0.98482,1.668248 -1.50308,3.031373 -0.26327,0.69246 -0.56231,0.890514 -0.87398,0.578845 z m 71.29089,-2.765631 c 0,-0.509323 0.0545,-0.717683 0.121,-0.463021 0.0666,0.254661 0.0666,0.67138 0,0.926042 -0.0666,0.254661 -0.121,0.0463 -0.121,-0.463021 z m 0.28789,-2.910417 c 0,-0.945885 0.048,-1.332839 0.10671,-0.859896 0.0587,0.472943 0.0587,1.246849 0,1.719792 -0.0587,0.472943 -0.10671,0.08599 -0.10671,-0.859896 z m 0.2706,-4.101042 c 10e-4,-1.164166 0.0475,-1.607505 0.10337,-0.985194 0.0559,0.62231 0.0551,1.57481 -0.002,2.116666 -0.0568,0.541857 -0.10258,0.03269 -0.10162,-1.131472 z m -67.29487,-0.894813 c 0,-0.14552 0.11906,-0.338166 0.26458,-0.428103 0.14552,-0.08994 0.26458,-0.04446 0.26458,0.101062 0,0.145521 -0.11906,0.338167 -0.26458,0.428104 -0.14552,0.08994 -0.26458,0.04446 -0.26458,-0.101063 z m 0.61736,-1.795118 c 0.097,-0.09701 0.25576,-0.09701 0.35278,0 0.097,0.09701 0.0176,0.17639 -0.17639,0.17639 -0.19403,0 -0.2734,-0.07937 -0.17639,-0.17639 z m 66.40691,-1.675694 c 0,-0.945885 0.048,-1.332838 0.10671,-0.859896 0.0587,0.472943 0.0587,1.246849 0,1.719792 -0.0587,0.472943 -0.10671,0.08599 -0.10671,-0.859896 z m -66.23052,0.661459 c 0,-0.07276 0.0595,-0.132292 0.13229,-0.132292 0.0728,0 0.13229,0.05953 0.13229,0.132292 0,0.07276 -0.0595,0.132291 -0.13229,0.132291 -0.0728,0 -0.13229,-0.05953 -0.13229,-0.132291 z m 0.46192,-1.346068 c -0.26269,-0.262692 -0.25279,-1.366555 0.0137,-1.531276 0.51562,-0.318678 0.79345,0.237326 0.48971,0.980061 -0.16836,0.411703 -0.39492,0.65975 -0.50345,0.551215 z m 65.49139,-2.225808 c 0,-0.654843 0.0516,-0.922734 0.11466,-0.595312 0.0631,0.327422 0.0631,0.863203 0,1.190625 -0.0631,0.327422 -0.11466,0.05953 -0.11466,-0.595313 z m -0.43841,-2.808652 c -0.0969,-0.824707 -0.1235,-1.552192 -0.059,-1.616639 0.0644,-0.06445 0.20092,0.553135 0.30328,1.372407 0.10236,0.819272 0.12894,1.546757 0.0591,1.616639 -0.0699,0.06988 -0.20636,-0.547704 -0.30329,-1.372407 z m -0.38563,-2.483014 c 0,-0.363802 0.0601,-0.512631 0.13346,-0.33073 0.0734,0.181901 0.0734,0.479558 0,0.661459 -0.0734,0.181901 -0.13346,0.03307 -0.13346,-0.330729 z m -0.77035,-3.083351 c -0.3266,-1.263373 -0.54889,-2.341965 -0.49398,-2.396871 0.1434,-0.143402 1.27336,4.137178 1.17221,4.440631 -0.0464,0.139303 -0.35164,-0.780388 -0.67823,-2.04376 z"
         id="path1315" /><path
         style="fill:#0f1424;stroke-width:0.264583"
         d="m 240.81981,87.466275 c -0.94588,-0.2129 -2.73182,-0.88269 -3.96875,-1.48843 -1.84016,-0.90114 -2.6832,-1.53957 -4.63792,-3.5122 -3.68133,-3.71508 -5.18804,-7.28685 -5.19525,-12.31574 -0.01,-6.9951 3.46172,-12.80163 9.56859,-16.00354 4.01733,-2.10634 8.5338,-2.431 13.0132,-0.93542 3.58531,1.19706 7.59202,4.46768 9.47935,7.73786 2.0069,3.47736 2.79183,8.27089 2.01999,12.3361 -0.66533,3.50426 -2.17052,6.2323 -5.06566,9.18113 -2.51219,2.55878 -4.51116,3.8071 -7.54107,4.70926 -2.09876,0.62492 -5.59906,0.75766 -7.67248,0.29098 z m 17.31317,-77.89538 c 0.0806,-0.13036 1.24845,-0.9202 2.5953,-1.755205 5.48896,-3.402986 12.13407,-9.223994 15.99776,-14.013768 11.53768,-14.303163 15.85779,-32.328245 12.08861,-50.438085 -2.90731,-13.968797 -10.41696,-25.617557 -21.76109,-33.755186 -3.02416,-2.169356 -6.62432,-4.182676 -6.93098,-3.876015 -0.14025,0.140255 -0.27348,15.124324 -0.32083,36.084126 -0.0906,40.078079 0.0903,36.372005 -2.01327,41.251329 -1.33119,3.087719 -3.18065,5.787676 -5.72387,8.356042 -1.94504,1.964272 -6.26194,5.154607 -6.9748,5.154607 -0.22415,0 -0.30125,-12.120232 -0.30125,-47.360418 v -47.360417 h 3.01445 c 6.42571,0 14.85702,1.208265 23.3116,3.340709 12.27109,3.095061 24.97187,9.376304 36.11562,17.86119 7.2569,5.525423 15.31167,13.604851 20.67128,20.73456 7.36669,9.799648 13.05547,20.538269 16.67941,31.485417 3.44666,10.411604 5.51096,22.12982 5.51159,31.28698 l 2.2e-4,3.241144 h -46.05311 c -27.06317,0 -45.99272,-0.0977 -45.90664,-0.23701 z"
         id="path1313" /></g></g></svg>
