<svg xmlns="http://www.w3.org/2000/svg"  viewBox="0 0 64 64" width="512px" height="512px"><path fill="#c2cde7" d="M61,29.56v4.88c0,0.91-0.63,1.71-1.51,1.93l-5.19,1.29c-0.55,2.17-1.41,4.21-2.52,6.08l2.75,4.6 c0.48,0.79,0.36,1.79-0.3,2.44l-3.45,3.45c-0.37,0.38-0.88,0.59-1.41,0.59c-0.36,0-0.72-0.1-1.03-0.29l-4.6-2.75 c-1.86,1.11-3.9,1.96-6.06,2.51l-1.3,5.2C36.16,60.38,35.36,61,34.44,61h-4.89c-0.92,0-1.72-0.62-1.94-1.51l-1.21-4.86l-0.09-0.34 c-2.15-0.55-4.19-1.4-6.05-2.51l-4.6,2.75c-0.31,0.19-0.67,0.29-1.03,0.29c-0.53,0-1.04-0.21-1.41-0.59l-2.72-2.72l-0.73-0.73 c-0.66-0.65-0.78-1.65-0.3-2.45l2.69-4.49l0.06-0.1c-0.5-0.83-0.94-1.7-1.32-2.6c-0.49-1.11-0.89-2.27-1.19-3.46L9.39,37.6 l-4.88-1.22C3.62,36.16,3,35.36,3,34.44v-4.88c0-0.91,0.63-1.71,1.51-1.93l5.19-1.29c0.55-2.17,1.41-4.21,2.52-6.08l-2.75-4.6 c-0.48-0.79-0.36-1.79,0.3-2.44l3.46-3.45c0.37-0.38,0.88-0.59,1.41-0.59c0.36,0,0.72,0.1,1.03,0.29l4.59,2.75 c1.86-1.11,3.9-1.96,6.06-2.51l1.3-5.2C27.84,3.62,28.64,3,29.56,3h4.89c0.92,0,1.72,0.62,1.94,1.51l1.21,4.85l0.09,0.35 c1.18,0.3,2.33,0.69,3.43,1.18c0.91,0.38,1.78,0.83,2.62,1.33l0.1-0.06l4.5-2.69c0.31-0.19,0.67-0.29,1.03-0.29 c0.53,0,1.04,0.21,1.41,0.59l0.73,0.72l2.72,2.72c0.66,0.65,0.78,1.65,0.3,2.45l-2.75,4.6c1.11,1.86,1.96,3.9,2.51,6.06l0.31,0.08 l4.89,1.22C60.38,27.84,61,28.64,61,29.56z"/><path fill="#d3dded" d="M54.29 26.32l.31.08L26.4 54.63l-.09-.34c-2.15-.55-4.19-1.4-6.05-2.51l-4.6 2.75c-.31.19-.67.29-1.03.29-.53 0-1.04-.21-1.41-.59l-.72-.72 41.01-41.02.72.72c.66.65.78 1.65.3 2.45l-2.75 4.6C52.89 22.12 53.74 24.16 54.29 26.32zM51.51 10.49L10.5 51.51l-.73-.73c-.66-.65-.78-1.65-.3-2.45l2.69-4.49 31.68-31.68 4.5-2.69c.31-.19.67-.29 1.03-.29.53 0 1.04.21 1.41.59L51.51 10.49zM41.12 10.89L10.9 41.14c-.49-1.11-.89-2.27-1.19-3.46L9.39 37.6 37.6 9.36l.09.35C38.87 10.01 40.02 10.4 41.12 10.89z"/><path fill="#acb7d0" d="M32 15A17 17 0 1 0 32 49A17 17 0 1 0 32 15Z"/><path fill="#f9dd8f" d="M35 28.023c1.052.795 1.768 1.99 1.938 3.364l6.615 3.819v0C43.837 34.184 44 33.112 44 32c0-5.59-3.827-10.273-9-11.607V28.023zM40.549 40.4l-6.585-3.802C33.36 36.856 32.697 37 32 37s-1.36-.144-1.963-.402L23.451 40.4c-.009-.01-.026-.015-.036-.024C25.594 42.609 28.633 44 32 44c3.365 0 6.402-1.389 8.581-3.62C40.572 40.387 40.556 40.392 40.549 40.4zM20.446 35.206l6.615-3.819c.17-1.375.886-2.569 1.938-3.364v-7.629C23.827 21.727 20 26.41 20 32 20 33.112 20.163 34.184 20.446 35.206 20.446 35.206 20.446 35.206 20.446 35.206z"/><path fill="#8d6c9f" d="M34.44,62h-4.89c-1.378,0-2.574-0.933-2.909-2.269l-1.154-4.628c-1.813-0.51-3.565-1.237-5.221-2.168 L16.17,55.39c-1.159,0.692-2.711,0.497-3.66-0.449L9.06,51.489c-0.978-0.977-1.162-2.486-0.449-3.671l2.452-4.087 c-0.93-1.654-1.657-3.405-2.167-5.22L4.27,37.35C2.934,37.015,2,35.818,2,34.44v-4.877c0.004-1.376,0.937-2.569,2.268-2.903 l4.623-1.152c0.511-1.821,1.239-3.578,2.17-5.236l-2.452-4.094c-0.712-1.181-0.527-2.689,0.45-3.667l3.461-3.451 c0.951-0.949,2.507-1.141,3.659-0.449l4.088,2.453c1.654-0.93,3.405-1.657,5.221-2.167l1.162-4.626C26.985,2.934,28.182,2,29.56,2 h4.89c1.378,0,2.574,0.933,2.909,2.269l1.154,4.628c1.815,0.511,3.566,1.238,5.22,2.167L47.83,8.61 c1.157-0.692,2.71-0.497,3.66,0.45l3.449,3.438c0.979,0.978,1.163,2.488,0.449,3.673l-2.453,4.095 c0.93,1.654,1.657,3.405,2.168,5.222l4.626,1.162C61.066,26.985,62,28.182,62,29.56v4.877c-0.004,1.376-0.937,2.569-2.268,2.903 l-4.623,1.152c-0.512,1.821-1.24,3.578-2.17,5.236l2.452,4.094c0.712,1.181,0.527,2.69-0.451,3.668l-3.449,3.449 c-0.952,0.95-2.504,1.143-3.66,0.451l-4.097-2.455c-1.657,0.931-3.408,1.658-5.223,2.168l-1.162,4.626 C37.015,61.066,35.818,62,34.44,62z M20.257,50.775c0.177,0,0.354,0.047,0.511,0.141c1.816,1.081,3.765,1.89,5.792,2.405 c0.357,0.09,0.635,0.369,0.724,0.727l1.296,5.198C28.692,59.689,29.09,60,29.55,60h4.89c0.459,0,0.858-0.312,0.97-0.757l1.305-5.196 c0.089-0.357,0.367-0.636,0.724-0.727c2.027-0.515,3.977-1.323,5.793-2.404c0.315-0.188,0.71-0.187,1.025,0.002l4.601,2.757 c0.385,0.23,0.903,0.165,1.22-0.15l3.448-3.448c0.326-0.326,0.389-0.83,0.151-1.224l-2.756-4.602 c-0.189-0.315-0.189-0.709-0.001-1.024c1.081-1.817,1.89-3.771,2.407-5.809c0.09-0.356,0.37-0.635,0.728-0.725l5.193-1.294 c0.441-0.11,0.752-0.508,0.753-0.966V29.56c0-0.459-0.311-0.857-0.756-0.97c0,0,0,0,0,0l-5.196-1.305 c-0.356-0.089-0.635-0.367-0.726-0.724c-0.516-2.03-1.325-3.979-2.405-5.792c-0.188-0.316-0.188-0.71,0.001-1.025l2.756-4.602 c0.24-0.398,0.178-0.902-0.148-1.229l-3.448-3.438c-0.317-0.315-0.833-0.384-1.222-0.15l-4.6,2.755 c-0.315,0.188-0.708,0.19-1.025,0.002c-1.814-1.079-3.764-1.888-5.792-2.404c-0.356-0.091-0.635-0.37-0.724-0.727l-1.296-5.198 C35.308,4.311,34.91,4,34.45,4h-4.89c-0.459,0-0.858,0.312-0.97,0.757l-1.305,5.196c-0.089,0.356-0.367,0.636-0.724,0.726 c-2.029,0.516-3.978,1.324-5.791,2.404c-0.317,0.188-0.71,0.187-1.026-0.002l-4.593-2.756c-0.383-0.23-0.902-0.165-1.219,0.15 l-3.46,3.45c-0.325,0.325-0.387,0.828-0.149,1.222l2.756,4.602c0.189,0.315,0.189,0.709,0.001,1.024 c-1.081,1.818-1.891,3.772-2.407,5.809c-0.09,0.356-0.37,0.635-0.728,0.725l-5.193,1.294C4.312,28.711,4.001,29.108,4,29.566v4.874 c0,0.459,0.311,0.857,0.756,0.97l5.197,1.305c0.356,0.089,0.635,0.367,0.726,0.724c0.516,2.028,1.324,3.977,2.404,5.791 c0.188,0.316,0.188,0.711-0.002,1.026l-2.756,4.594c-0.239,0.396-0.177,0.899,0.149,1.226l3.451,3.45 c0.314,0.313,0.83,0.381,1.219,0.148l4.6-2.756C19.901,50.823,20.08,50.775,20.257,50.775z"/><path fill="#8d6c9f" d="M50 33h-2c-.552 0-1-.447-1-1s.448-1 1-1h2c.552 0 1 .447 1 1S50.552 33 50 33zM49.119 38.563c-.102 0-.207-.016-.309-.049l-1.902-.618c-.525-.171-.813-.735-.642-1.26.17-.525.734-.813 1.26-.643l1.902.618c.525.171.813.735.642 1.26C49.933 38.294 49.541 38.563 49.119 38.563zM46.562 43.58c-.204 0-.409-.063-.587-.191l-1.618-1.176c-.447-.324-.546-.949-.221-1.396.325-.446.949-.545 1.397-.221l1.618 1.176c.447.324.546.949.221 1.396C47.176 43.438 46.871 43.58 46.562 43.58zM42.581 47.563c-.31 0-.614-.143-.81-.412l-1.175-1.618c-.325-.447-.226-1.072.221-1.397.448-.322 1.073-.226 1.397.222l1.175 1.618c.325.447.226 1.072-.221 1.397C42.99 47.5 42.785 47.563 42.581 47.563zM37.563 50.119c-.422 0-.814-.269-.951-.691l-.618-1.902c-.17-.524.117-1.089.642-1.26.528-.169 1.09.117 1.26.643l.618 1.902c.17.524-.117 1.089-.642 1.26C37.769 50.104 37.665 50.119 37.563 50.119zM47.217 28.056c-.422 0-.814-.269-.951-.691-.17-.524.117-1.089.642-1.26l1.902-.618c.526-.169 1.09.117 1.26.643.17.524-.117 1.089-.642 1.26l-1.902.618C47.423 28.04 47.319 28.056 47.217 28.056zM44.945 23.596c-.31 0-.614-.143-.81-.412-.325-.447-.226-1.072.221-1.396l1.618-1.176c.448-.325 1.073-.227 1.397.221.325.447.226 1.072-.221 1.396l-1.618 1.176C45.354 23.533 45.149 23.596 44.945 23.596zM41.404 20.056c-.204 0-.409-.062-.587-.19-.447-.325-.546-.95-.221-1.397l1.175-1.618c.325-.446.95-.547 1.397-.222.447.325.546.95.221 1.397l-1.175 1.618C42.018 19.913 41.713 20.056 41.404 20.056zM36.944 17.783c-.102 0-.207-.016-.309-.049-.525-.171-.813-.735-.642-1.26l.618-1.902c.17-.525.735-.812 1.26-.643.525.171.813.735.642 1.26l-.618 1.902C37.758 17.515 37.366 17.783 36.944 17.783zM32 50c-9.925 0-18-8.075-18-18 0-5.715 2.771-11.147 7.411-14.534.446-.326 1.072-.227 1.397.218.326.446.228 1.072-.218 1.397C18.463 22.093 16 26.922 16 32c0 8.822 7.178 16 16 16 .552 0 1 .447 1 1S32.552 50 32 50zM27 16.75c-.427 0-.823-.276-.955-.706-.163-.527.134-1.087.662-1.25C28.419 14.268 30.2 14 32 14c.552 0 1 .447 1 1s-.448 1-1 1c-1.6 0-3.184.237-4.706.706C27.196 16.736 27.097 16.75 27 16.75zM43.554 36.206c-.173 0-.346-.045-.5-.134l-6.615-3.819c-.271-.157-.454-.432-.492-.743-.134-1.081-.685-2.036-1.549-2.689C34.147 28.632 34 28.336 34 28.022v-7.629c0-.31.143-.601.388-.79.244-.19.565-.254.862-.179C40.991 20.905 45 26.076 45 32c0 1.149-.163 2.318-.482 3.474-.083.298-.299.541-.585.658C43.811 36.182 43.682 36.206 43.554 36.206zM37.846 30.756l5.022 2.9C42.956 33.101 43 32.547 43 32c0-4.569-2.82-8.609-7-10.235v5.787C36.945 28.399 37.585 29.511 37.846 30.756z"/><path fill="#8d6c9f" d="M32 45c-3.527 0-6.831-1.395-9.301-3.926-.371-.38-.38-.982-.021-1.374.137-.149.311-.249.495-.295l6.364-3.674c.273-.157.604-.178.893-.054.999.428 2.142.428 3.141 0 .289-.124.619-.104.893.054l6.379 3.684c.181.049.35.149.484.299.351.392.337.988-.03 1.364C38.828 43.607 35.526 45 32 45zM25.129 40.586C27.074 42.151 29.469 43 32 43c2.532 0 4.927-.849 6.871-2.414L33.873 37.7c-1.207.398-2.538.398-3.745 0L25.129 40.586zM23.415 40.376h.01H23.415zM20.446 36.206c-.128 0-.257-.024-.379-.074-.286-.117-.502-.36-.585-.658C19.163 34.318 19 33.149 19 32c0-5.924 4.009-11.095 9.75-12.575.297-.076.618-.012.862.179.245.189.388.48.388.79v7.629c0 .313-.147.609-.397.798-.864.653-1.415 1.608-1.549 2.689-.039.312-.221.586-.492.743l-6.615 3.819C20.792 36.161 20.62 36.206 20.446 36.206zM28 21.765c-4.18 1.626-7 5.666-7 10.235 0 .547.044 1.101.131 1.656l5.022-2.9c.261-1.245.901-2.356 1.846-3.204V21.765zM32 30A2 2 0 1 0 32 34 2 2 0 1 0 32 30z"/></svg>