<svg xmlns="http://www.w3.org/2000/svg"  viewBox="0 0 64 64" width="512px" height="512px"><path fill="#ffefb8" d="M59,7V57a2,2,0,0,1-2,2H7a2,2,0,0,1-2-2V31a2,2,0,0,1,2-2H27a2,2,0,0,0,2-2V7a2,2,0,0,1,2-2H57A2,2,0,0,1,59,7Z"/><path fill="#fff6df" d="M59 33.69L33.69 59H57a2 2 0 0 0 2-2zM27.94 59L59 27.94 59 16.1 16.1 59 27.94 59zM59 7c0-.06 0-.11 0-.17L57.7 5.56 5.27 58A2 2 0 0 0 7 59h5.15L59 12.15z"/><path fill="#8d6c9f" d="M57,4H31a3,3,0,0,0-3,3V27a1,1,0,0,1-1,1H7a3,3,0,0,0-3,3V57a3,3,0,0,0,3,3H57a3,3,0,0,0,3-3V7A3,3,0,0,0,57,4Zm1,53a1,1,0,0,1-1,1H7a1,1,0,0,1-1-1V31a1,1,0,0,1,1-1H27a3,3,0,0,0,3-3V7a1,1,0,0,1,1-1H57a1,1,0,0,1,1,1Z"/><path fill="#8d6c9f" d="M55 48H53a1 1 0 0 0 0 2h2a1 1 0 0 0 0-2zM55 53H53a1 1 0 0 0 0 2h2a1 1 0 0 0 0-2zM55 33H53a1 1 0 0 0 0 2h2a1 1 0 0 0 0-2zM55 28H53a1 1 0 0 0 0 2h2a1 1 0 0 0 0-2zM55 23H53a1 1 0 0 0 0 2h2a1 1 0 0 0 0-2zM55 18H53a1 1 0 0 0 0 2h2a1 1 0 0 0 0-2zM55 13H53a1 1 0 0 0 0 2h2a1 1 0 0 0 0-2zM55 8H53a1 1 0 0 0 0 2h2a1 1 0 0 0 0-2zM55 43H53a1 1 0 0 0 0 2h2a1 1 0 0 0 0-2zM55 38H53a1 1 0 0 0 0 2h2a1 1 0 0 0 0-2zM43 28a1 1 0 0 0-1 1V39a5 5 0 0 1-5 5H20.41l4.29-4.29a1 1 0 0 0-1.41-1.41l-6 6a1 1 0 0 0 0 1.42l6 6a1 1 0 0 0 1.41-1.41L20.41 46H37a7 7 0 0 0 7-7V29A1 1 0 0 0 43 28zM43 20a1 1 0 0 0-1 1v4a1 1 0 0 0 2 0V21A1 1 0 0 0 43 20z"/><path fill="#fff" d="M35.3 23.49L36.53 25.76 38.8 27 36.53 28.23 35.3 30.5 34.06 28.23 31.79 27 34.06 25.76 35.3 23.49zM43 50.58L43.85 52.15 45.42 53 43.85 53.85 43 55.42 42.15 53.85 40.58 53 42.15 52.15 43 50.58zM13.28 35.55L13.87 36.61 14.93 37.2 13.87 37.78 13.28 38.84 12.7 37.78 11.63 37.2 12.7 36.61 13.28 35.55z"/></svg>