<svg xmlns="http://www.w3.org/2000/svg"  viewBox="0 0 64 64" width="512px" height="512px"><path fill="#f9e3ae" d="M53,25V43H31v5a3,3,0,0,0,3,3H45.69L49,56l4,2V51h5a3,3,0,0,0,3-3V28a3,3,0,0,0-3-3Z"/><path fill="#eacd98" d="M30,24H57a0,0,0,0,1,0,0V43a4,4,0,0,1-4,4H30a0,0,0,0,1,0,0V24A0,0,0,0,1,30,24Z"/><path fill="#c2cde7" d="M50,43H22s-5,9-10,8a27.83,27.83,0,0,0,.67-8H6a3,3,0,0,1-3-3V10A3,3,0,0,1,6,7H50a3,3,0,0,1,3,3V40A3,3,0,0,1,50,43Z"/><path fill="#ced9ed" d="M36 43L53.56 25.44 53 12 22 43 36 43zM13 44L11 43 47 7 51.5 7 52.38 8.19 12.24 48.32 13 44zM38 7L3.45 41.55A3 3 0 0 0 6 43L42 7z"/><path fill="#acb7d0" d="M3,42H3a1,1,0,0,0,1,1h8.67A27.83,27.83,0,0,1,12,51c5,1,10-8,10-8H52a1,1,0,0,0,1-1h0a4,4,0,0,0-4-4H7A4,4,0,0,0,3,42Z"/><path fill="#8d6c9f" d="M59,24H54V9a3,3,0,0,0-3-3H5A3,3,0,0,0,2,9V41a3,3,0,0,0,3,3h7.14a11.54,11.54,0,0,1-2,6.49A1,1,0,0,0,11,52l.22,0c7.72-1.72,10.6-6.24,11.44-8H30v5a3,3,0,0,0,3,3H45.24a10.16,10.16,0,0,0,8.62,7H54a1,1,0,0,0,.93-1.37A12.06,12.06,0,0,1,53.78,52H59a3,3,0,0,0,3-3V27A3,3,0,0,0,59,24ZM22,42a1,1,0,0,0-.95.68S19.47,47.2,13,49.42c1.83-4.1,1-6.61,1-6.74A1,1,0,0,0,13,42H5a1,1,0,0,1-1-1V9A1,1,0,0,1,5,8H51a1,1,0,0,1,1,1V41a1,1,0,0,1-1,1Zm38,7a1,1,0,0,1-1,1H53a1,1,0,0,0-.89.55c-.11.22-.91,2,.34,6.08A7.87,7.87,0,0,1,47,50.84,1,1,0,0,0,46,50H33a1,1,0,0,1-1-1V44H51a3,3,0,0,0,3-3V26h5a1,1,0,0,1,1,1Z"/><path fill="#8d6c9f" d="M8 36a1 1 0 0 0-1 1v2a1 1 0 0 0 2 0V37A1 1 0 0 0 8 36zM13 36a1 1 0 0 0-1 1v2a1 1 0 0 0 2 0V37A1 1 0 0 0 13 36zM18 36a1 1 0 0 0-1 1v2a1 1 0 0 0 2 0V37A1 1 0 0 0 18 36zM23 36a1 1 0 0 0-1 1v2a1 1 0 0 0 2 0V37A1 1 0 0 0 23 36zM28 36a1 1 0 0 0-1 1v2a1 1 0 0 0 2 0V37A1 1 0 0 0 28 36zM33 36a1 1 0 0 0-1 1v2a1 1 0 0 0 2 0V37A1 1 0 0 0 33 36zM38 36a1 1 0 0 0-1 1v2a1 1 0 0 0 2 0V37A1 1 0 0 0 38 36zM43 36a1 1 0 0 0-1 1v2a1 1 0 0 0 2 0V37A1 1 0 0 0 43 36zM48 36a1 1 0 0 0-1 1v2a1 1 0 0 0 2 0V37A1 1 0 0 0 48 36zM39 20H35a1 1 0 0 0 0 2h4a1 1 0 0 0 0-2zM13 22H31a1 1 0 0 0 0-2H13a1 1 0 0 0 0 2zM35 26H13a1 1 0 0 0 0 2H35a1 1 0 0 0 0-2z"/><path fill="#e4eaf4" d="M40.5 27L41.74 29.26 44 30.5 41.74 31.74 40.5 34 39.26 31.74 37 30.5 39.26 29.26 40.5 27zM31.42 11L32.27 12.56 33.84 13.42 32.27 14.27 31.42 15.84 30.56 14.27 29 13.42 30.56 12.56 31.42 11zM11.65 31L12.23 32.06 13.3 32.65 12.23 33.23 11.65 34.3 11.06 33.23 10 32.65 11.06 32.06 11.65 31z"/></svg>