<svg xmlns="http://www.w3.org/2000/svg"  viewBox="0 0 64 64" width="512px" height="512px"><path fill="#ced8ed" d="M5 9H59V19H5z"/><path fill="#8b8e98" d="M5 19H59V55H5z"/><path fill="#8d6c9f" d="M55,18H51a1,1,0,0,0,0,2h4a1,1,0,0,0,0-2Z"/><path fill="#8d6c9f" d="M57,8H7a3,3,0,0,0-3,3V53a3,3,0,0,0,3,3H57a3,3,0,0,0,3-3V11A3,3,0,0,0,57,8Zm1,45a1,1,0,0,1-1,1H7a1,1,0,0,1-1-1V20H47a1,1,0,0,0,0-2H6V11a1,1,0,0,1,1-1H57a1,1,0,0,1,1,1Z"/><path fill="#8d6c9f" d="M20 12a1 1 0 0 0-1 1v2a1 1 0 0 0 2 0V13A1 1 0 0 0 20 12zM15 12a1 1 0 0 0-1 1v2a1 1 0 0 0 2 0V13A1 1 0 0 0 15 12zM10 12a1 1 0 0 0-1 1v2a1 1 0 0 0 2 0V13A1 1 0 0 0 10 12zM35 12a1 1 0 0 0-1 1v2a1 1 0 0 0 2 0V13A1 1 0 0 0 35 12zM40 12a1 1 0 0 0-1 1v2a1 1 0 0 0 2 0V13A1 1 0 0 0 40 12zM45 12a1 1 0 0 0-1 1v2a1 1 0 0 0 2 0V13A1 1 0 0 0 45 12zM51 15V13a1 1 0 0 0-2 0v2a1 1 0 0 0 2 0zM55 12a1 1 0 0 0-1 1v2a1 1 0 0 0 2 0V13A1 1 0 0 0 55 12zM25 12a1 1 0 0 0-1 1v2a1 1 0 0 0 2 0V13A1 1 0 0 0 25 12zM30 12a1 1 0 0 0-1 1v2a1 1 0 0 0 2 0V13A1 1 0 0 0 30 12z"/><path fill="#faefde" d="M26.71 35.29l-7-7a1 1 0 0 0-1.41 1.41L24.59 36l-6.29 6.29a1 1 0 1 0 1.41 1.41l7-7A1 1 0 0 0 26.71 35.29zM45 42H27a1 1 0 0 0 0 2H45a1 1 0 0 0 0-2z"/></svg>