<svg xmlns="http://www.w3.org/2000/svg"  viewBox="0 0 64 64" width="512px" height="512px"><path fill="#faefde" d="M31.936 10.225999999999999A22 22 0 1 0 31.936 54.226A22 22 0 1 0 31.936 10.225999999999999Z"/><path fill="#fff7f0" d="M13.649 53.513c2.627 2.498 5.736 4.49 9.177 5.823l34.11-34.11V18.8c-1.058-1.757-2.308-3.384-3.713-4.861L13.649 53.513zM11.7 51.463l39.237-39.237h-6L9.157 48.005C9.916 49.224 10.768 50.379 11.7 51.463zM8.731 44.431l33.205-33.205-3-2L7.3 40.862C7.698 42.091 8.175 43.284 8.731 44.431z"/><path fill="#faefde" d="M31.936,4.226c-15.464,0-28,12.536-28,28s12.536,28,28,28s28-12.536,28-28S47.4,4.226,31.936,4.226z M31.936,54.226c-12.15,0-22-9.85-22-22s9.85-22,22-22c5.883,0,11.226,2.309,15.174,6.07c0.231,0.22,0.456,0.444,0.677,0.674 c0.258,0.268,0.51,0.543,0.755,0.825c3.36,3.863,5.394,8.91,5.394,14.431C53.936,44.376,44.087,54.226,31.936,54.226z"/><path fill="#ed7899" d="M29 45L29 27 24 32 20 28 32 16 44 28 40 32 35 27 35 45z"/><path fill="#efd8be" d="M32,54c-12.15,0-22-9.85-22-22H8.339c-2.491,0-4.361,2.25-3.945,4.706C6.631,49.929,18.14,60,32,60 s25.369-10.071,27.606-23.294C60.022,34.25,58.152,32,55.661,32H54C54,44.15,44.15,54,32,54z"/><path fill="#8d6c9f" d="M39.351,12.322c0.712,0.267,1.419,0.576,2.099,0.919c0.145,0.073,0.298,0.107,0.45,0.107 c0.366,0,0.718-0.201,0.894-0.549c0.249-0.493,0.051-1.095-0.442-1.343c-0.746-0.376-1.52-0.715-2.3-1.007 c-0.516-0.193-1.093,0.069-1.287,0.586S38.833,12.128,39.351,12.322z"/><path fill="#8d6c9f" d="M32,3C16.009,3,3,16.009,3,32s13.009,29,29,29s29-13.009,29-29S47.991,3,32,3z M32,59 C17.112,59,5,46.888,5,32S17.112,5,32,5s27,12.112,27,27S46.888,59,32,59z"/><path fill="#8d6c9f" d="M32 51c-.552 0-1 .448-1 1v2c0 .552.448 1 1 1s1-.448 1-1v-2C33 51.448 32.552 51 32 51zM38.013 51.077c-.143-.534-.688-.851-1.225-.707-.533.143-.85.691-.707 1.225l.518 1.932c.12.447.523.742.965.742.085 0 .172-.011.259-.035.533-.143.85-.691.707-1.225L38.013 51.077zM22.75 48.521c-.479-.276-1.09-.112-1.366.366l-1 1.732c-.276.478-.112 1.09.366 1.366.157.091.33.134.499.134.346 0 .682-.179.867-.5l1-1.732C23.392 49.41 23.229 48.798 22.75 48.521zM42.616 48.888c-.276-.479-.889-.643-1.366-.366-.479.276-.642.888-.366 1.366l1 1.732c.186.321.521.5.867.5.169 0 .342-.043.499-.134.479-.276.642-.888.366-1.366L42.616 48.888zM27.212 50.37c-.536-.144-1.083.173-1.225.707l-.518 1.932c-.143.534.174 1.082.707 1.225.087.023.174.035.259.035.442 0 .846-.295.965-.742l.518-1.932C28.062 51.061 27.745 50.512 27.212 50.37zM11 32c0-5.609 2.185-10.883 6.151-14.849 4.748-4.749 11.544-6.951 18.187-5.886.551.089 1.059-.284 1.146-.829.087-.545-.284-1.059-.829-1.146-7.273-1.165-14.718 1.246-19.917 6.446C11.393 20.081 9 25.856 9 32s2.393 11.919 6.737 16.263c.195.195.451.293.707.293s.512-.098.707-.293c.391-.391.391-1.023 0-1.414C13.185 42.883 11 37.609 11 32zM48.263 15.737c-.661-.661-1.365-1.286-2.093-1.856-.434-.34-1.064-.266-1.404.17-.341.435-.265 1.063.17 1.404.665.521 1.309 1.092 1.913 1.696C50.815 21.117 53 26.391 53 32s-2.185 10.883-6.151 14.849c-.391.391-.391 1.023 0 1.414.195.195.451.293.707.293s.512-.098.707-.293C52.607 43.919 55 38.144 55 32S52.607 20.081 48.263 15.737z"/><path fill="#8d6c9f" d="M32.707,15.293c-0.391-0.391-1.023-0.391-1.414,0l-12,12c-0.391,0.391-0.391,1.023,0,1.414l4,4 c0.391,0.391,1.023,0.391,1.414,0L28,29.414V45c0,0.552,0.448,1,1,1h6c0.552,0,1-0.448,1-1V29.414l3.293,3.293 c0.391,0.391,1.023,0.391,1.414,0l4-4c0.391-0.391,0.391-1.023,0-1.414L32.707,15.293z M40,30.586l-4.293-4.293 c-0.287-0.287-0.716-0.373-1.09-0.217C34.244,26.231,34,26.596,34,27v17h-4V27c0-0.404-0.244-0.769-0.617-0.924 c-0.375-0.156-0.804-0.07-1.09,0.217L24,30.586L21.414,28L32,17.414L42.586,28L40,30.586z"/></svg>